<svg xmlns="http://www.w3.org/2000/svg" width="1100" height="100" viewBox="0 0 1100 100"><style>.a{fill:#FFF;}</style><path d="M155.3 15.2c2.8 0 5.2-2.3 5.2-5.1 0-2.7-1.8-5.1-5.1-5.2 -2.8 0-5.1 1.9-5.2 5.1C150.1 12.7 152 15 155.3 15.2zM558.7 6.1c0.1 2.8 2.6 5.2 5.3 5.1 2.8-0.1 5.2-2.6 5.1-5.3 -0.1-2.8-2.6-5.2-5.3-5.1C561.1 0.8 558.7 3.3 558.7 6.1zM467.5 6.1c0.1-2.8-2.3-5.2-5.1-5.3 -2.7-0.1-5.2 2.4-5.3 5.1 -0.1 2.7 2.3 5.2 5.1 5.3C464.9 11.3 467.4 8.9 467.5 6.1zM251.8 6c0.2 2.9 2.1 5.2 5.2 5.1 3.3 0 5.1-2.4 5.1-5.2 0.1-2.7-2.5-5.3-5.2-5.2C253.8 1 252 3.2 251.8 6zM554.9 5.9c0-2.8-2.6-5.3-5.2-5.1 -3.4 0.2-5.1 2.6-5.1 5.2 0.1 3.1 2.3 5.1 5.2 5.1C552.5 11.2 554.9 8.7 554.9 5.9zM481.7 5.9c0-2.8-2.6-5.3-5.3-5.1 -3.4 0.2-5.1 2.6-5.1 5.3 0.1 3.2 2.4 5.1 5.2 5.1C479.3 11.2 481.8 8.7 481.7 5.9zM277.6 6c0.1 2.9 2.2 5.2 5.2 5.1 3.2 0 5.2-2.4 5.1-5.2 0-2.9-2.1-5.1-5.2-5.2C279.8 0.8 277.7 3 277.6 6zM1063.1 5.9c-0.2-3.4-2.6-5.1-5.2-5.1 -2.7-0.1-5.2 2.5-5.1 5.3 0 2.7 2.6 5.3 5.3 5.1C1061.3 11 1062.9 8.6 1063.1 5.9zM453.2 6c-0.1-2.7-1.8-5-5.1-5.2 -2.7-0.2-5.2 2.4-5.2 5.1 0 2.7 2.4 5.3 5.2 5.2C450.7 11.1 453 9.4 453.2 6zM583.3 6c-0.2-2.9-2.1-5.2-5.2-5.2 -2.9 0-5.1 2-5.2 5.1 0 2.8 1.9 5.1 5.1 5.2C581 11.2 583.1 9.2 583.3 6z" class="a"/><path d="M752 28.3c-2.2-0.5-3.2-1.3-3.2-2.8 0-1.6 0.9-2.4 3.3-3 0.1-0.8 0.2-1.6 0-2.4 -0.3-0.9-0.2-1.7-0.2-2.5 0.6-0.4 1.2-0.3 1.8-0.3 5.2 0 10.4 0 15.6 0 6.7 0 13.4 0 20.2 0 0.6 0 1.3-0.1 1.9 0.2 0.1 0.8 0.2 1.7-0.1 2.5 -0.3 0.8-0.2 1.6 0 2.5 0.4 0 0.8 0.1 1.1 0.1 0.6 0 1.2 0 1.8 0 1.4 0.2 2.4 1.3 2.4 2.6 0 1.3-0.9 2.5-2.3 2.7 -0.4 0.1-0.9 0-1.3 0.1 -0.5 0-1.1 0-1.6 0 -0.5 0.6-0.3 1.2-0.3 1.8 0 6.8 0 13.5 0 20.3 0 15.6 0 31.2 0 46.8 0 0.6 0 1.2 0 1.7 -0.5 0.5-1 0.4-1.5 0.4 -3.9 0-7.8 0-11.7 0 -7.9 0-15.8 0-23.7 0 -0.6 0-1.2 0-1.7 0 -0.4-0.5-0.3-1-0.3-1.5 0-3.6 0-7.2 0-10.7 0-9.7 0-19.4 0-29.1 0-0.6 0-1.2 0-1.8 -0.5-0.2-1-0.4-1.4-0.6 -1.7-0.8-2.5-2.2-2.5-4 0-1.9 0.9-3.3 2.6-4.2 0.4-0.2 0.8-0.3 1.1-0.4 0.1-0.1 0.1-0.2 0.2-0.2 0 0 0.1-0.1 0.1-0.2 0-0.4 0-0.9 0-1.3 0-5.4 0-10.8 0-16.3 0-0.2-0.1-0.3-0.1-0.5C752 28.4 752 28.4 752 28.3zM778.3 32.5c-0.1 0.6-0.1 1.1-0.1 1.5 0 3.2 0 6.5 0 9.7 0 0.3 0 0.7 0.1 1 0 0.4 0.3 0.6 0.6 0.6 0.2 0 0.3 0 0.5 0 3.4 0 6.8 0 10.2 0 0.3 0 0.6-0.1 0.9-0.2 0.1-0.3 0.1-0.5 0.1-0.7 0-3.7 0-7.4 0-11 0-0.3-0.1-0.6-0.2-0.9 -0.3-0.1-0.5-0.1-0.7-0.1 -3.5 0-6.9 0-10.4 0C779 32.3 778.7 32.4 778.3 32.5zM777.6 46c-0.3-0.1-0.5-0.1-0.7-0.1 -3.5 0-7 0-10.5 0 -0.3 0-0.5 0.1-0.8 0.2 -0.1 0.3-0.1 0.5-0.1 0.7 0 3.7 0 7.5 0 11.2 0 0.2 0.1 0.5 0.2 0.8 0.3 0.1 0.5 0.1 0.7 0.1 3.5 0 7 0 10.5 0 0.3 0 0.5-0.1 0.7-0.2C777.9 57.2 777.9 47.4 777.6 46zM790.3 72.4c-0.5 0-0.9-0.1-1.4-0.1 -3.1 0-6.2 0-9.2 0 -0.2 0-0.4 0-0.6 0 -0.7 0.1-0.9 0.2-1 1 0 0.2 0 0.3 0 0.5 0 3.3 0 6.6 0 9.9 0 0.5-0.1 1 0.3 1.5 0.2 0 0.4 0.2 0.7 0.2 3.5 0 6.9 0 10.4 0 0.3 0 0.6-0.2 0.9-0.2C790.6 83.5 790.6 73.8 790.3 72.4zM778.4 86c-0.4 0.5-0.3 1.1-0.3 1.7 0 3.1 0 6.2 0 9.3 0 0.4 0 0.8 0 1.1 0 0.5 0.3 0.7 0.7 0.7 0.2 0 0.4 0 0.6 0 3.2 0 6.5 0 9.7 0 0.4 0 0.7-0.1 1.1-0.2 0.1-0.3 0.2-0.5 0.2-0.7 0-3.8 0-7.6 0-11.4 0-0.2-0.2-0.5-0.2-0.7C788.6 85.7 779.6 85.7 778.4 86zM765.6 98.7c0.3 0.1 0.6 0.2 1 0.2 3.4 0 6.8 0 10.2 0 0.3 0 0.6-0.2 0.8-0.2 0.1-0.2 0.1-0.3 0.1-0.4 0-3.8 0-7.7 0-11.5 0-0.2-0.2-0.5-0.3-0.8 -3.7 0-7.4 0-11.1 0 -0.3 0-0.5 0.1-0.8 0.1 -0.1 0.2-0.2 0.4-0.2 0.5 0 3.8 0 7.7 0 11.5C765.4 98.2 765.5 98.4 765.6 98.7zM752.7 98.5c0.5 0.4 1.1 0.3 1.6 0.3 2.9 0 5.8 0 8.8 0 0.4 0 0.8 0 1.1 0 0.5 0 0.7-0.3 0.7-0.7 0-0.2 0-0.4 0-0.6 0-3.5 0-6.9 0-10.4 0-0.4-0.1-0.7-0.2-1.1 -0.3-0.1-0.5-0.2-0.7-0.2 -3.6 0-7.1 0-10.7 0 -0.2 0-0.5 0.1-0.7 0.2 -0.2 1.3-0.3 7.9-0.1 11.6C752.6 97.9 752.7 98.2 752.7 98.5zM790.4 58.6c0.1-0.3 0.1-0.5 0.1-0.7 0-3.7 0-7.5 0-11.2 0-0.2-0.1-0.5-0.2-0.7 -1.4-0.2-10.5-0.2-12 0 -0.1 0.3-0.2 0.7-0.2 1 0 3.6 0 7.1 0 10.7 0 0.3 0.2 0.6 0.2 0.9 1.2 0.2 8.4 0.4 11.1 0.2C789.8 58.8 790.1 58.7 790.4 58.6zM764.8 72.3c-3.7-0.1-7.4 0-11.1 0 -0.3 0-0.6 0.1-1 0.2 0 0.4-0.1 0.8-0.1 1.2 0 3.4 0 6.8 0 10.2 0 1.4 0.1 1.5 1.5 1.5 3.1 0 6.3 0 9.4 0 0.4 0 0.8-0.1 1.3-0.1 0.1-0.4 0.2-0.8 0.2-1.2C765.2 79.9 765.1 73.8 764.8 72.3zM777.7 72.5c-0.3-0.1-0.5-0.2-0.7-0.2 -3.6 0-7.1 0-10.7 0 -0.2 0-0.4 0.1-0.6 0.2 -0.1 0.2-0.2 0.4-0.2 0.6 0 3.8 0 7.7 0 11.5 0 0.1 0.1 0.3 0.2 0.5 0.4 0 0.8 0.1 1.2 0.1 3.1 0 6.3 0 9.4 0 0.3 0 0.5 0 0.8 0 0.4-0.1 0.6-0.3 0.6-0.7 0-0.3 0-0.6 0-1 0-3.3 0-6.6 0-9.9C777.8 73.4 777.7 73 777.7 72.5zM765.6 59.5c-0.1 0.2-0.1 0.4-0.1 0.5 0 3.7 0 7.4 0 11 0 0.2 0.2 0.5 0.2 0.7 0.2 0.1 0.3 0.1 0.4 0.1 3.6 0 7.2 0 10.9 0 0.2 0 0.5-0.1 0.7-0.2 0.2-1.5 0.2-10.8 0-12.1 -0.2-0.1-0.4-0.2-0.6-0.2 -3.6 0-7.1 0-10.7 0C766.1 59.3 765.8 59.4 765.6 59.5zM752.8 71.7c0.3 0.1 0.5 0.1 0.7 0.1 3.6 0 7.3 0 10.9 0 0.1 0 0.3-0.1 0.5-0.2 0.1-0.3 0.1-0.7 0.2-1.1 0.2-4.4 0.1-9.8-0.2-11.1 -0.2-0.1-0.4-0.2-0.6-0.2 -3.6 0-7.3 0-10.9 0 -0.2 0-0.4 0.1-0.6 0.2C752.5 60.8 752.5 70 752.8 71.7zM778.4 71.7c0.2 0.1 0.3 0.1 0.4 0.1 3.7 0 7.4 0 11 0 0.2 0 0.4-0.1 0.6-0.2 0.1-0.2 0.1-0.4 0.1-0.5 0-3.7 0-7.4 0-11 0-0.2-0.1-0.4-0.2-0.5 -1.3-0.3-7.4-0.4-10.9-0.2 -0.4 0-0.7 0.1-1.1 0.2 -0.1 0.3-0.2 0.5-0.2 0.7 0 3.7 0 7.4 0 11C778.2 71.3 778.3 71.5 778.4 71.7zM777.6 45.2c0.1-0.2 0.2-0.4 0.2-0.5 0-3.8 0-7.7 0-11.5 0-0.2-0.1-0.4-0.2-0.6 -0.2-0.1-0.4-0.2-0.6-0.2 -3.6 0-7.2 0-10.7 0 -0.2 0-0.4 0.1-0.6 0.1 -0.3 1.2-0.3 1.2 0 2.4 0.5 0.2 0.9 0.4 1.4 0.7 2.1 1.2 2.8 3.6 1.9 5.8 -0.5 1-1.2 1.8-2.2 2.3 -0.3 0.2-0.7 0.3-1 0.5 -0.2 0.1-0.2 0.5-0.2 0.7 0 0.2 0.2 0.4 0.4 0.4 0.2 0.1 0.5 0.1 0.8 0.1 3.3 0 6.5 0 9.8 0C776.8 45.4 777.2 45.3 777.6 45.2zM752.8 45.2c0.3 0.1 0.7 0.2 1.1 0.2 3.3 0 6.6 0 9.9 0 0.3 0 0.5 0 0.8-0.1 0.3-0.1 0.4-0.4 0.4-0.6 0-0.2-0.2-0.4-0.3-0.5 -0.4-0.2-0.8-0.2-1.2-0.4 -2.5-0.9-3.7-3.5-2.7-5.9 0.6-1.4 1.6-2.3 3.1-2.7 0.4-0.1 0.8-0.2 1.2-0.4 0.1-0.8 0.2-1.6-0.1-2.3 -0.2-0.1-0.4-0.2-0.6-0.2 -3.6 0-7.1 0-10.7 0 -0.2 0-0.4 0.1-0.7 0.2 0 0.4-0.1 0.8-0.1 1.3C752.5 40 752.5 43.9 752.8 45.2zM752.6 56.1c0.1 0.9-0.2 1.7 0.2 2.5 0.3 0.1 0.7 0.2 1.1 0.2 3.2 0 6.5 0 9.7 0 0.3 0 0.6 0 0.8-0.1 0.2-0.1 0.4-0.3 0.5-0.5 0.1-0.2 0.1-0.4 0.1-0.6 0-3.6 0-7.1 0-10.7 0-0.3-0.1-0.6-0.2-0.9 -0.3 0-0.5-0.1-0.7-0.1 -3.5 0-6.9 0-10.4 0 -0.2 0-0.3 0-0.5 0 -0.3 0-0.5 0.2-0.5 0.5 0 0.2 0.2 0.4 0.4 0.4 0.3 0.1 0.7 0.2 1.1 0.3 1.8 0.7 3 2.4 3 4.2 0 1.8-1.1 3.5-2.8 4.2C753.9 55.7 753.3 55.9 752.6 56.1zM764.9 28.4c-0.3-0.1-0.4-0.2-0.5-0.2 -3.7 0-7.3 0-11 0 -0.2 0-0.5 0.1-0.7 0.2 -0.1 1.1-0.2 2.2 0.1 3.3 0.3 0.1 0.5 0.1 0.7 0.1 3.6 0 7.2 0 10.8 0 0.2 0 0.4-0.1 0.6-0.2C765.1 30.5 765.1 29.5 764.9 28.4zM777.4 31.9c0.5-1.1 0.5-2.1 0.1-3.6 -0.2 0-0.4-0.1-0.6-0.1 -3.6 0-7.2 0-10.9 0 -0.1 0-0.3 0.1-0.5 0.2 -0.2 1.1-0.2 2.2 0 3.3 0.3 0.1 0.5 0.1 0.7 0.1C770 31.9 773.7 31.9 777.4 31.9zM778.3 31.7c1.3 0.2 8.8 0.3 11.3 0.2 0.3 0 0.5-0.1 0.7-0.1 0.3-1.3 0.3-2.1 0-3.4 -0.2 0-0.4-0.1-0.6-0.1 -3.6 0-7.1 0-10.7 0 -0.2 0-0.5 0.1-0.8 0.2C778.1 29.5 778 30.6 778.3 31.7zM778.4 22.6c0.2 0 0.4 0.1 0.7 0.1 3.6 0 7.1 0 10.7 0 0.2 0 0.5-0.1 0.8-0.2 0.1-0.9 0.2-1.6-0.1-2.4 -0.3 0-0.5-0.1-0.7-0.1 -3.5 0-7 0-10.6 0 -0.3 0-0.5 0.1-0.8 0.2C778.1 21 778 21.8 778.4 22.6zM765.6 22.8c1.5 0 2.8 0 4.1 0 1.3 0 2.6 0 3.9 0 1.3 0 2.7 0.2 4-0.1 0.2-0.9 0.2-1.6-0.1-2.4 -0.3-0.1-0.5-0.1-0.7-0.1 -3.6 0-7.1 0-10.7 0 -0.2 0-0.5 0.1-0.7 0.2C765.4 21.1 765.3 21.8 765.6 22.8zM764.9 20.2c-1.4-0.3-2.7-0.1-4-0.2 -1.4 0-2.7 0-4.1 0 -1.3 0-2.7-0.2-4.1 0.2 0 0.8-0.2 1.6 0.1 2.4 0.3 0 0.6 0.1 0.8 0.1 3.5 0 6.9 0 10.4 0 0.3 0 0.6-0.1 1-0.2C765 21.7 765.1 21 764.9 20.2z"/><path d="M689.5 28.3c0 0.7-0.1 1.2-0.1 1.7 0 9.5 0 19.1 0 28.6 0 7.8 0 15.6 0 23.4 0 5.1 0 10.2 0 15.3 0 0.6 0 1.2-0.1 1.6 -0.2 0.2-0.2 0.2-0.2 0.2 0 0-0.1 0-0.2 0 -4.3 0-8.7 0.1-13 0.1 -8.3 0-16.7 0-24.9 0 -0.5-0.5-0.4-1-0.4-1.5 0-4.1 0-8.2 0-12.4 0-8.3 0-16.6 0-24.9 0-8.6 0-17.2 0-25.8 0-1.7 0-3.4 0-5 0-0.4-0.1-0.9-0.1-1.3 -0.5-0.1-0.9-0.1-1.3-0.3 -1.2-0.3-2.1-1.4-2.1-2.6 0-1.2 0.9-2.4 2.2-2.7 0.4-0.1 0.7-0.1 1.1-0.2 0.2-0.9 0.3-1.7 0-2.6 -0.3-0.9-0.1-1.7-0.1-2.5 0.3-0.1 0.6-0.1 0.8-0.1 12.6 0 25.3 0 37.9 0 0.2 0 0.4 0.1 0.7 0.1 0.3 0.9 0.3 1.7 0 2.6 -0.3 0.8-0.2 1.7 0 2.6 0.6 0 1.2 0 1.7 0 0.4 0 0.8 0 1.1 0 1.4 0.1 2.4 1.2 2.5 2.6 0.1 1.4-0.9 2.6-2.4 2.8 -0.6 0.1-1.2 0-1.8 0.1C690.3 28.2 690 28.2 689.5 28.3zM688.8 45.2c0.1-0.3 0.2-0.5 0.2-0.8 0-3.7 0-7.5 0-11.2 0-0.2-0.1-0.5-0.2-0.7 -1.2-0.2-8.5-0.4-11.1-0.2 -0.3 0-0.6 0.1-1 0.2 -0.3 1.4-0.1 2.9-0.1 4.3 0 1.4 0 2.8 0 4.2 0 1.4-0.2 2.8 0.2 4.2 0.3 0.1 0.5 0.2 0.7 0.2 3.6 0 7.1 0 10.7 0C688.3 45.4 688.5 45.3 688.8 45.2zM676.7 58.5c0.4 0.4 0.9 0.3 1.4 0.3 3.1 0 6.2 0 9.3 0 0.3 0 0.7 0 1-0.1 0.2-0.1 0.4-0.3 0.5-0.5 0.1-0.2 0.1-0.4 0.1-0.6 0-3.5 0-7 0-10.6 0-0.4-0.1-0.7-0.2-1 -0.3-0.1-0.4-0.1-0.6-0.1 -3.6 0-7.1 0-10.7 0 -0.3 0-0.5 0.1-0.8 0.2 0 0.3-0.1 0.6-0.1 0.9 0 3.7 0 7.5 0 11.2C676.6 58.3 676.7 58.4 676.7 58.5zM676.7 85.9c-0.1 0.3-0.1 0.5-0.1 0.7 0 3.8 0 7.7 0 11.5 0 0.1 0.1 0.3 0.2 0.5 0.4 0 0.8 0.1 1.2 0.1 3.1 0 6.3 0 9.4 0 0.3 0 0.5 0 0.8 0 0.5-0.1 0.6-0.3 0.7-0.7 0-0.2 0-0.3 0-0.5 0-3.5 0-7 0-10.5 0-0.4-0.1-0.7-0.2-1C687.5 85.8 678.5 85.7 676.7 85.9zM663.2 86c-1.4-0.3-5.9-0.4-11.1-0.2 -0.3 0-0.6 0.1-1 0.1 -0.1 0.3-0.1 0.6-0.1 0.8 0 3.7 0 7.4 0 11.1 0 0.3 0.1 0.5 0.2 0.7 1.3 0.3 6.8 0.4 10.9 0.3 0.4 0 0.7-0.1 1.1-0.2 0.1-0.3 0.1-0.6 0.1-0.8C663.4 95.2 663.3 87.3 663.2 86zM664 85.9c-0.1 0.3-0.2 0.5-0.2 0.7 0 3.8 0 7.7 0 11.5 0 0.1 0.1 0.3 0.2 0.5 0.3 0.1 0.7 0.2 1.1 0.2 3.3 0 6.6 0 9.9 0 0.3 0 0.6-0.1 0.9-0.2 0.1-0.3 0.2-0.5 0.2-0.7 0-3.8 0-7.6 0-11.4 0-0.2-0.1-0.4-0.2-0.7 -0.3 0-0.5-0.1-0.8-0.1C672.7 85.7 665.3 85.8 664 85.9zM651.2 58.7c0.3 0.1 0.6 0.1 0.9 0.1 3.4 0 6.8 0 10.2 0 0.3 0 0.6-0.1 0.9-0.2 0.1-0.2 0.1-0.4 0.1-0.5 0-3.8 0-7.7 0-11.5 0-0.2-0.1-0.4-0.2-0.5 -1.5-0.2-10.6-0.2-11.9 0 -0.1 0.3-0.2 0.6-0.2 0.9C650.8 49.9 650.9 57.4 651.2 58.7zM664 46c-0.1 0.4-0.2 0.7-0.2 1 0 3.6 0 7.1 0 10.7 0 0.3 0.1 0.6 0.2 1 0.4 0.1 0.8 0.1 1.2 0.1 3.2 0 6.4 0 9.6 0 0.3 0 0.5 0 0.8-0.1 0.4-0.1 0.6-0.3 0.6-0.6 0-0.2 0-0.4 0-0.6 0-3.5 0-6.9 0-10.4 0-0.4-0.1-0.7-0.2-1.1C674.7 45.8 665.8 45.7 664 46zM663.3 85.1c0-4.3 0.1-8.4 0-12.6 -0.5-0.1-0.8-0.2-1.2-0.2 -3.3 0-6.6 0-9.9 0 -0.4 0-0.7 0.1-1.1 0.2 -0.1 0.3-0.1 0.5-0.1 0.7 0 3.7 0 7.4 0 11.1 0 0.3 0.1 0.6 0.2 0.9 0.3 0.1 0.5 0.1 0.7 0.1 3.5 0 7 0 10.6 0C662.6 85.3 662.8 85.2 663.3 85.1zM663.9 72.5c-0.1 0.4-0.1 0.7-0.1 1.1 0 3.4 0 6.8 0 10.2 0 1.4 0.1 1.5 1.5 1.5 3.1 0 6.3 0 9.4 0 0.4 0 0.8-0.1 1.3-0.2 0.3-1.5 0.1-2.9 0.2-4.3 0-1.4 0-2.8 0-4.2 0-1.4 0.1-2.8-0.1-4.2 -0.3-0.1-0.5-0.2-0.7-0.2 -3.6 0-7.1 0-10.7 0C664.4 72.3 664.2 72.4 663.9 72.5zM676.8 85.2c0.5 0 1 0.1 1.5 0.1 3 0 5.9 0 8.9 0 1.7 0 1.8 0 1.8-1.9 0-3.1 0-6.3 0-9.4 0-0.4 0-0.8-0.1-1.1 0-0.4-0.3-0.6-0.6-0.6 -0.2 0-0.3 0-0.5 0 -3.4 0-6.8 0-10.2 0 -0.3 0-0.6 0.1-0.9 0.2C676.5 74.1 676.5 83.8 676.8 85.2zM688.7 71.7c0.1-0.3 0.2-0.5 0.2-0.8 0-3.6 0-7.1 0-10.7 0-0.2-0.1-0.5-0.2-0.7 -1.3-0.3-7.5-0.4-10.9-0.2 -0.4 0-0.7 0.1-1.1 0.2 -0.2 1.3-0.3 7.3-0.2 11.3 0 0.3 0.1 0.6 0.1 0.9 0.2 0.1 0.4 0.2 0.5 0.2 3.6 0 7.3 0 10.9 0C688.3 71.8 688.5 71.7 688.7 71.7zM651.1 59.5c-0.3 1.3-0.4 6.3-0.2 11.1 0 0.4 0.1 0.7 0.2 1.1 0.3 0.1 0.5 0.2 0.7 0.2 3.6 0 7.1 0 10.7 0 0.2 0 0.5-0.1 0.7-0.2 0.2-1.6 0.2-10.8 0-12.1 -0.2-0.1-0.4-0.2-0.6-0.2 -3.6 0-7.2 0-10.9 0C651.5 59.3 651.3 59.4 651.1 59.5zM676 59.5c-1.5-0.3-4.6-0.4-10.6-0.2 -0.5 0-0.9 0.1-1.4 0.1 -0.1 0.3-0.2 0.5-0.2 0.7 0 3.6 0 7.2 0 10.9 0 0.2 0.1 0.5 0.2 0.7 1.6 0.2 10.6 0.2 11.9 0 0.1-0.3 0.2-0.6 0.2-0.9C676.3 68.7 676.2 60.7 676 59.5zM676 32.5c-0.4-0.1-0.7-0.1-1-0.1 -3.4 0-6.7 0-10.1 0 -0.3 0-0.6 0.1-0.9 0.2 -0.3 1.3-0.3 1.3 0 2.4 0.5 0.2 1 0.5 1.4 0.7 3 1.8 3 5.8 0.1 7.7 -0.4 0.2-0.8 0.4-1.2 0.6 -0.6 0.3-0.6 0.4-0.3 1.3 0.2 0 0.5 0.1 0.8 0.1 3.4 0 6.8 0 10.2 0 0.3 0 0.6-0.1 0.9-0.2 0.1-0.3 0.2-0.5 0.2-0.7 0-3.7 0-7.4 0-11.1C676.2 33.2 676.1 32.9 676 32.5zM651.2 32.3c-0.1 0.4-0.2 0.7-0.2 1 0 3.7 0 7.5 0 11.2 0 0.2 0.1 0.5 0.2 0.8 0.5 0 0.9 0.1 1.3 0.1 3.1 0 6.2 0 9.3 0 0.4 0 0.8-0.1 1.1-0.1 0.1 0 0.2-0.1 0.3-0.3 0-0.2-0.1-0.5-0.1-0.8 -0.4-0.1-0.8-0.2-1.2-0.3 -2-0.6-3.3-2.3-3.3-4.3 0-2 1.2-3.7 3.3-4.4 0.4-0.1 0.8-0.2 1.3-0.4 0-0.8 0.2-1.5-0.1-2.3 -0.2-0.1-0.5-0.2-0.8-0.2C658.7 32.3 655 32.3 651.2 32.3zM651.1 31.7c0.3 0.1 0.4 0.1 0.5 0.1 3.6 0 7.3 0 10.9 0 0.2 0 0.5-0.1 0.7-0.2 0.1-1.1 0.1-2.2 0-3.2 -0.3-0.1-0.4-0.2-0.6-0.2 -3.6 0-7.3 0-10.9 0 -0.2 0-0.4 0.1-0.7 0.1C650.9 29.5 650.9 30.6 651.1 31.7zM676.7 31.7c0.3 0.1 0.4 0.2 0.5 0.2 3.7 0 7.4 0 11.1 0 0.1 0 0.3-0.1 0.5-0.2 0.3-1.1 0.2-2.2 0-3.3 -0.3-0.1-0.5-0.1-0.7-0.1 -3.6 0-7.2 0-10.7 0 -0.2 0-0.5 0.1-0.8 0.2C676.5 29.6 676.5 30.6 676.7 31.7zM663.9 31.7c1.6 0.2 10.7 0.2 12.1 0 0.1-0.3 0.2-0.7 0.2-1.1 0-0.4 0-0.9 0-1.3 0-0.4-0.1-0.7-0.2-1 -0.3-0.1-0.4-0.1-0.6-0.1 -3.6 0-7.1 0-10.7 0 -0.3 0-0.5 0.1-0.8 0.2 0 0.7 0 1.4 0 2.1C663.8 30.9 663.9 31.3 663.9 31.7zM663.9 22.6c0.3 0.1 0.4 0.2 0.6 0.2 3.6 0 7.2 0 10.9 0 0.2 0 0.4-0.1 0.7-0.1 0.3-0.9 0.4-1.7 0-2.5 -1.1-0.2-9.1-0.3-11.2-0.1 -0.3 0-0.5 0.1-0.8 0.2C663.7 21 663.8 21.7 663.9 22.6zM651.1 20.2c-0.2 0.9-0.2 1.6 0 2.5 0.2 0 0.5 0.1 0.7 0.1 3.6 0 7.1 0 10.7 0 0.3 0 0.5-0.1 0.8-0.2 0.1-0.9 0.2-1.6-0.1-2.4C661.8 20 652.7 20 651.1 20.2zM676.6 22.7c0.4 0 0.7 0.1 0.9 0.1 3.5 0 6.9 0 10.4 0 0.3 0 0.6-0.1 1-0.2 0-0.6 0-1.1 0-1.7 0-0.2-0.1-0.4-0.1-0.7 -1.4-0.2-2.7-0.1-4-0.1 -1.4 0-2.7 0-4.1 0 -1.3 0-2.7-0.2-4.1 0.2C676.6 21 676.6 21.8 676.6 22.7z"/><path d="M892.6 99c-1.6 0.2-37.1 0.2-38.6 0 -0.3-0.5-0.2-1-0.2-1.6 0-4.6 0-9.2 0-13.8 0-17.2 0-34.4 0-51.5 0-1.2 0-2.5 0-3.8 -0.5-0.1-0.8-0.2-1.2-0.2 -1.4-0.3-2.4-1.5-2.3-2.7 0-1.3 1-2.3 2.5-2.6 0.3-0.1 0.5-0.1 0.8-0.1 0.3-0.9 0.3-1.7 0-2.5 -0.3-0.9-0.2-1.7-0.1-2.5 0.6-0.3 1.3-0.2 1.9-0.2 6.7 0 13.3 0 20 0 5.1 0 10.3 0 15.4 0 0.6 0 1.2 0 1.8 0.1 0.4 0.9 0.3 1.8 0.1 2.6 -0.3 0.9-0.2 1.7 0 2.6 0.3 0 0.7 0.1 1 0.1 0.6 0 1.2 0 1.8 0 1.5 0.1 2.5 1.2 2.6 2.6 0 1.5-1 2.6-2.5 2.7 -0.4 0.1-0.9 0-1.3 0 -0.5 0-1 0-1.4 0.1 -0.4 0.6-0.3 1.1-0.3 1.6 0 4.8 0 9.6 0 14.5 0 5.7 0 11.4 0 17.1 0 11.9 0 23.7 0 35.6C892.6 97.7 892.6 98.3 892.6 99zM880 45.2c1.3 0.3 8.1 0.4 11.1 0.2 0.3 0 0.6-0.1 0.9-0.2 0.3-1.3 0.4-5.4 0.2-11.4 0-0.4-0.1-0.8-0.1-1.3 -0.3-0.1-0.6-0.2-0.8-0.2 -3.5 0-6.9 0-10.4 0 -0.3 0-0.6 0.2-0.9 0.2C879.8 34.1 879.8 43.8 880 45.2zM879.8 58.6c0.5 0.1 0.7 0.2 1 0.2 3.5 0 6.9 0 10.4 0 0.3 0 0.6-0.2 0.9-0.2 0.2-1.1 0.3-9.8 0.1-11.8 0-0.3-0.1-0.5-0.2-0.7 -0.2-0.1-0.4-0.2-0.5-0.2 -3.6 0-7.3 0-10.9 0 -0.2 0-0.4 0.1-0.7 0.1 -0.1 0.2-0.1 0.4-0.2 0.6C879.8 50.6 879.8 54.5 879.8 58.6zM880 98.7c0.3 0.1 0.5 0.1 0.7 0.1 3.6 0 7.1 0 10.7 0 0.2 0 0.4-0.1 0.6-0.2 0.1-0.3 0.2-0.5 0.2-0.8 0-3.7 0-7.4 0-11 0-0.3-0.2-0.6-0.3-0.9 -0.2 0-0.4-0.1-0.6-0.1 -3.6 0-7.1 0-10.7 0 -0.2 0-0.5 0.1-0.7 0.2C879.8 87.5 879.8 97.2 880 98.7zM854.4 86c-0.1 0.3-0.2 0.6-0.2 0.9 0 3.6 0 7.3 0 10.9 0 0.3 0.1 0.6 0.2 0.9 0.3 0.1 0.5 0.1 0.7 0.1 3.5 0 6.9 0 10.4 0 0.3 0 0.6-0.1 0.9-0.2 0-0.3 0.1-0.6 0.1-0.9 0-3.6 0-7.3 0-10.9 0-0.3-0.1-0.6-0.2-0.9C865 85.7 855.8 85.7 854.4 86zM879.2 98.6c0.1-0.3 0.2-0.7 0.2-1 0-3.5 0-7 0-10.6 0-0.4-0.1-0.7-0.2-1.1 -0.3 0-0.5-0.1-0.7-0.1 -3.5 0-6.9 0-10.4 0 -0.3 0-0.6 0.1-0.9 0.2 0 0.3-0.1 0.6-0.1 0.9 0 3.7 0 7.5 0 11.2 0 0.2 0.1 0.3 0.2 0.5 0.3 0.1 0.6 0.2 0.9 0.2C870.8 99 878.1 98.8 879.2 98.6zM854.4 45.9c-0.1 0.4-0.2 0.6-0.2 0.9 0 3.7 0 7.4 0 11 0 0.3 0.1 0.5 0.2 0.7 1.3 0.3 6.4 0.4 10.9 0.2 0.4 0 0.7-0.1 1.1-0.2 0.1-0.3 0.1-0.6 0.1-0.8 0-3.7 0-7.4 0-11 0-0.3-0.1-0.5-0.1-0.7 -0.2-0.1-0.3-0.2-0.4-0.2 -3.5 0-7 0-10.5-0.1C855.2 45.8 854.9 45.9 854.4 45.9zM867.2 58.5c0.5 0.4 1 0.3 1.5 0.3 3 0 6.1 0 9.1 0 0.3 0 0.6 0 1 0 0.4 0 0.6-0.2 0.7-0.6 0-0.2 0.1-0.4 0.1-0.6 0-3.5 0-7 0-10.5 0-0.4-0.2-0.7-0.2-1 -0.3-0.1-0.4-0.1-0.6-0.1 -3.6 0-7.1 0-10.7 0 -0.2 0-0.5 0.1-0.7 0.2 -0.2 1.3-0.3 8.3-0.2 11.6C867.1 58 867.2 58.3 867.2 58.5zM854.4 72.4c-0.1 0.4-0.1 0.6-0.1 0.9 0 3.6 0 7.2 0 10.7 0 0.4 0.1 0.7 0.2 1.1 0.3 0.1 0.5 0.2 0.7 0.2 3.5 0 7 0 10.6 0 0.3 0 0.5-0.1 0.8-0.2 0-0.4 0.1-0.7 0.1-1 0-3.6 0-7.2 0-10.7 0-0.3-0.1-0.6-0.2-0.9 -0.3-0.1-0.5-0.1-0.7-0.1 -3.5 0-7 0-10.6 0C854.9 72.3 854.7 72.4 854.4 72.4zM867.2 85.1c1.5 0.3 6.8 0.3 10.9 0.2 0.4 0 0.7-0.1 1.2-0.2 0.1-0.4 0.2-0.8 0.2-1.1 0-3.5 0-7 0-10.6 0-0.4-0.2-0.7-0.2-1 -0.3-0.1-0.5-0.1-0.7-0.1 -3.5 0-6.9 0-10.4 0 -0.3 0-0.6 0.2-0.8 0.2 -0.2 1.4-0.3 7.2-0.2 11.4C867.1 84.3 867.1 84.7 867.2 85.1zM880 72.5c0 0.2-0.1 0.5-0.1 0.8 0 3.7 0 7.3 0 11 0 0.3 0.1 0.6 0.2 0.9 0.4 0 0.7 0.1 1 0.1 3.5 0 6.9 0 10.4 0 0.2 0 0.3-0.1 0.6-0.2 0.1-0.4 0.2-0.8 0.2-1.2 0-3.5 0-6.9 0-10.4 0-0.4-0.1-0.7-0.2-1.1 -0.3-0.1-0.5-0.1-0.7-0.1 -3.6 0-7.2 0-10.9 0C880.3 72.3 880.2 72.4 880 72.5zM854.4 59.5c-0.1 0.3-0.1 0.5-0.1 0.7 0 3.6 0 7.1 0 10.7 0 0.3 0.2 0.6 0.2 0.9 0.3 0 0.5 0.1 0.7 0.1 3.5 0 6.9 0 10.4 0 0.3 0 0.6-0.1 0.9-0.2 0.1-0.2 0.1-0.4 0.1-0.6 0-3.7 0-7.4 0-11 0-0.2-0.1-0.4-0.2-0.5 -1.4-0.3-7.3-0.4-10.9-0.2C855.1 59.3 854.8 59.4 854.4 59.5zM892 59.5c-0.2-0.1-0.4-0.2-0.6-0.2 -3.6 0-7.2 0-10.9 0 -0.2 0-0.4 0.1-0.7 0.2 0 1 0 2.1 0 3.1 0 1 0 1.9 0 2.9 0 1 0 2.1 0 3.1 0 1-0.1 2 0.1 3.1 1 0.2 2 0.1 3 0.1 1 0 2.1 0 3.1 0 1 0 1.9 0 2.9 0 1 0 2 0.1 3.1-0.1 0.1-0.4 0.2-0.8 0.2-1.2C892.4 65.9 892.3 60.8 892 59.5zM879.3 59.4c-0.4-0.1-0.6-0.1-0.8-0.1 -3.5 0-6.9 0-10.4 0 -0.3 0-0.6 0.1-0.9 0.2 -0.1 0.3-0.1 0.5-0.1 0.7 0 3.6 0 7.1 0 10.7 0 0.3 0.1 0.5 0.2 0.8 1.4 0.2 2.7 0.1 4.1 0.1 1.3 0 2.6 0 3.9 0 1.3 0 2.7 0.2 4-0.1 0.1-0.3 0.2-0.5 0.2-0.7 0-3.6 0-7.1 0-10.7C879.4 60.1 879.3 59.8 879.3 59.4zM867.3 32.5c-0.2 0.9-0.3 1.7 0 2.5 0.5 0.3 1 0.5 1.5 0.8 3 1.8 3 5.8 0.1 7.7 -0.4 0.2-0.8 0.4-1.2 0.6 -0.6 0.3-0.6 0.4-0.3 1.3 0.2 0 0.4 0.1 0.6 0.1 3.5 0 7 0 10.6 0 0.3 0 0.5-0.1 0.8-0.2 0.1-0.3 0.2-0.6 0.2-0.8 0-3.6 0-7.3 0-10.9 0-0.3-0.1-0.6-0.2-0.9 -0.2-0.1-0.4-0.2-0.5-0.2 -3.5 0-6.9 0-10.4 0C868 32.3 867.7 32.4 867.3 32.5zM866.5 32.5c-0.4-0.1-0.7-0.2-1-0.2 -3.4 0-6.8 0-10.2 0 -0.3 0-0.6 0.1-0.9 0.2 -0.1 0.4-0.1 0.7-0.1 1 0 3.6 0 7.2 0 10.7 0 0.3 0.1 0.6 0.2 0.8 0.2 0.1 0.3 0.2 0.4 0.2 3.7 0 7.4 0 11.1 0 0.2 0 0.5-0.2 0.6-0.4 0.1-0.2 0-0.5 0-0.8 -0.6-0.2-1-0.2-1.5-0.4 -1.3-0.5-2.2-1.3-2.7-2.6 -1-2.5 0.3-5.1 2.9-6 0.4-0.1 1 0 1.4-0.5C866.5 34 866.5 33.3 866.5 32.5zM854.4 31.8c1.4 0.2 2.7 0.1 4.1 0.1 1.3 0 2.6 0 3.9 0 1.3 0 2.7 0.1 4.1-0.1 0.2-1.2 0.2-2.3 0-3.4 -1.4-0.2-6.8-0.3-11.1-0.2 -0.3 0-0.6 0.1-1 0.1C854.2 29.5 854.1 30.6 854.4 31.8zM880 31.7c0.3 0.1 0.5 0.1 0.6 0.1 3.6 0 7.3 0 10.9 0 0.2 0 0.4-0.1 0.6-0.2 0.1-1.2 0.3-2.3-0.1-3.3 -0.2 0-0.4-0.1-0.5-0.1 -3.6 0-7.3 0-10.9 0 -0.2 0-0.4 0.1-0.7 0.2C879.8 29.5 879.8 30.6 880 31.7zM867.2 28.4c-0.1 1.2-0.3 2.3 0.1 3.3 1.5 0.2 10.6 0.2 12 0 0.3-1.1 0.4-2.3 0-3.4C877.6 28.1 868.6 28.1 867.2 28.4zM867.1 22.6c1.6 0.3 10.8 0.3 12.2 0 0.2-0.8 0.3-1.6-0.1-2.5 -0.3 0-0.6-0.1-0.8-0.1 -3.4 0-6.8 0-10.2 0 -0.3 0-0.6 0.1-1 0.2 0 0.4-0.1 0.7-0.1 1C867.1 21.6 867.1 22.1 867.1 22.6zM866.5 20c-1.5 0-2.9 0-4.2 0 -1.3 0-2.6 0-3.9 0 -1.3 0-2.7-0.2-4 0.2 -0.2 0.9-0.2 1.6 0 2.4 0.2 0 0.5 0.1 0.7 0.1 3.6 0 7.1 0 10.7 0 0.3 0 0.5-0.1 0.8-0.2C866.5 21.7 866.5 21 866.5 20zM892.1 22.5c0.2-0.7 0.2-1.5 0-2.3 -0.3-0.1-0.6-0.1-0.8-0.1 -3.5 0-7 0-10.5 0 -0.3 0-0.5 0.1-0.8 0.2 -0.1 0.9-0.2 1.6 0.1 2.5 0.3 0 0.6 0.1 0.8 0.1 3.6 0 7.2 0 10.9 0C891.8 22.7 891.9 22.6 892.1 22.5z"/><path d="M40.7 99.1c0-4.8 0-9.4 0-14 0-4.6 0-9.2 0-13.8 -0.4-0.2-0.8-0.4-1.2-0.6 -1.6-0.9-2.5-2.2-2.5-4 0-1.8 0.9-3.2 2.5-4 0.4-0.2 0.8-0.4 1.2-0.6 0-1.4 0-2.7 0-4.1 0-12.1 0-24.2 0-36.2 0-0.6 0-1.2-0.2-1.7 -0.3-0.7-0.1-1.5-0.1-2.3 0.6-0.4 1.2-0.3 1.8-0.3 5.2 0 10.4 0 15.6 0 6.7 0 13.3 0 20 0 0.6 0 1.3-0.1 2 0.2 0.2 0.8 0.2 1.6 0 2.4 -0.1 0.5-0.2 1.1-0.2 1.6 0 4 0 8 0 12 0 0.4 0.1 0.7 0.1 1.2 0.5 0.1 1 0.2 1.4 0.3 1.7 0.5 2.4 2.4 1.6 3.9 -0.3 0.6-0.9 1-1.5 1.2 -0.4 0.1-0.8 0.2-1.3 0.2 -0.4 0.4-0.3 0.9-0.3 1.4 0 1.9 0 3.8 0 5.7 0 11.4 0 22.9 0 34.3 0 5.1 0 10.3 0 15.4 0 0.6 0 1.2 0 1.7 -0.6 0.4-1.1 0.3-1.6 0.3 -3.8 0-7.6 0-11.4 0 -7.9 0-15.7 0-23.6 0C42.2 99.2 41.6 99.2 40.7 99.1zM78.9 98.7c0.1-0.4 0.2-0.6 0.2-0.9 0-3.7 0-7.4 0-11 0-0.3-0.2-0.6-0.2-0.9 -0.2 0-0.4-0.1-0.6-0.1 -3.6 0-7.1 0-10.7 0 -0.2 0-0.5 0.1-0.7 0.2 -0.1 0.2-0.1 0.4-0.1 0.5 0 3.8 0 7.7 0 11.5 0 0.2 0.1 0.4 0.2 0.6 0.2 0.1 0.4 0.2 0.5 0.2 3.5 0 7 0 10.5 0C78.2 98.8 78.5 98.7 78.9 98.7zM53.5 85.9c-1.5-0.2-2.9-0.1-4.2-0.1 -1.3 0-2.6 0-3.9 0 -1.3 0-2.7-0.2-4.1 0.2 -0.2 1.4-0.1 2.8-0.1 4.2 0 1.4 0 2.8 0 4.2 0 1.4-0.2 2.8 0.1 4.2 0.3 0.1 0.5 0.2 0.7 0.2 3.6 0 7.3 0 10.9 0 0.1 0 0.3-0.1 0.5-0.2 0-0.2 0.1-0.4 0.1-0.6C53.5 94 53.5 90.1 53.5 85.9zM66.2 98.6c0.1-0.3 0.2-0.6 0.2-0.8 0-3.7 0-7.5 0-11.2 0-0.2-0.1-0.4-0.2-0.7 -1.3-0.1-2.7 0-4-0.1 -1.3 0-2.6 0-3.9 0 -1.3 0-2.7-0.2-4.1 0.2 -0.1 0.4-0.1 0.7-0.1 1 0 3.6 0 7.2 0 10.7 0 0.3 0.1 0.6 0.2 1 0.4 0.1 0.7 0.1 1 0.2C57.8 98.9 64.9 98.8 66.2 98.6zM53.4 46c-1.8-0.2-10.8-0.2-12.1 0 -0.1 0.3-0.2 0.7-0.2 1.1 0 3.5 0 7 0 10.6 0 0.4 0.1 0.7 0.2 1.1 0.3 0.1 0.5 0.1 0.7 0.1 3.5 0 6.9 0 10.4 0 0.3 0 0.6-0.1 0.9-0.2 0.2-1.4 0.3-7.6 0.1-11.6C53.5 46.7 53.4 46.4 53.4 46zM53.3 72.4c-0.4-0.1-0.7-0.1-1-0.1 -3.4 0-6.7 0-10.1 0 -0.3 0-0.6 0.1-0.9 0.2 -0.3 1.3-0.4 7.3-0.2 11.6 0 0.4 0.1 0.7 0.2 1.1 0.3 0.1 0.6 0.2 0.8 0.2 3.5 0 6.9 0 10.4 0 0.3 0 0.5-0.1 0.8-0.2 0-0.4 0.1-0.7 0.1-1C53.6 80.4 53.5 73.9 53.3 72.4zM66.1 85.2c0.1-0.4 0.2-0.8 0.2-1.1 0-3.5 0-7 0-10.6 0-0.4-0.1-0.7-0.2-1 -0.3-0.1-0.4-0.1-0.6-0.1 -3.6 0-7.1 0-10.7 0 -0.2 0-0.5 0.1-0.7 0.2 -0.1 0.3-0.1 0.5-0.1 0.7 0 3.7 0 7.4 0 11 0 0.3 0.2 0.6 0.2 0.9 1.4 0.3 6.5 0.3 10.8 0.2C65.3 85.3 65.7 85.2 66.1 85.2zM66.9 72.5c-0.2 1.3-0.3 8.2-0.2 11.7 0 0.3 0.1 0.6 0.1 0.9 0.3 0.1 0.5 0.2 0.7 0.2 3.6 0 7.1 0 10.7 0 0.2 0 0.4-0.1 0.7-0.2 0.1-0.3 0.2-0.6 0.2-0.9 0-3.6 0-7.2 0-10.9 0-0.3-0.1-0.6-0.2-0.9 -1.2-0.2-8.4-0.3-11.1-0.2C67.5 72.3 67.2 72.4 66.9 72.5zM78.9 59.5c-0.4-0.1-0.7-0.2-1.1-0.2 -3.3 0-6.6 0-9.9 0 -0.4 0-0.7 0.1-1.2 0.2 0 1.1 0 2.1 0 3.1 0 1 0 1.9 0 2.9 0 1 0 2.1 0 3.1 0 1-0.1 2 0.1 3.1 1 0.2 2 0.1 3 0.1 1 0 2.1 0 3.1 0 1 0 1.9 0 2.9 0 1 0 2 0.1 3-0.1 0.1-0.3 0.2-0.4 0.2-0.5 0-3.7 0-7.4 0-11C79.1 59.9 79 59.7 78.9 59.5zM54.2 59.5c-0.3 1.4-0.4 5-0.2 10.9 0 0.4 0.1 0.8 0.1 1.2 0.2 0.1 0.4 0.2 0.5 0.2 3.6 0 7.2 0 10.9 0 0.2 0 0.4-0.1 0.7-0.1 0.1-0.4 0.2-0.7 0.2-1.1 0-3.4 0-6.8 0-10.2 0-0.3-0.1-0.6-0.2-0.9 -1.3-0.2-7.6-0.4-10.9-0.2C54.8 59.3 54.5 59.4 54.2 59.5zM53.3 32.5c-0.3-0.1-0.6-0.2-0.9-0.2 -3.4 0-6.8 0-10.2 0 -0.3 0-0.6 0.2-0.9 0.2 -0.1 0.3-0.1 0.5-0.1 0.7 0 3.7 0 7.5 0 11.2 0 0.3 0.1 0.5 0.2 0.8 0.3 0.1 0.5 0.1 0.7 0.1 3.5 0 7 0 10.6 0 0.3 0 0.5-0.1 0.8-0.2 0-1.6 0.2-3.1-0.1-4.7 -0.7 0-1.3 0-1.8-0.1 -1.1-0.1-2-1-2.3-2 -0.2-1.1 0.2-2.2 1.1-2.8 0.4-0.3 1-0.4 1.5-0.5 0.5-0.1 1-0.1 1.4-0.1C53.5 33.7 53.5 33.7 53.3 32.5zM53.3 20.1c-1.4-0.2-2.8-0.1-4.1-0.1 -1.3 0-2.6 0-3.9 0 -1.3 0-2.7-0.2-4 0.2 0 0.3-0.1 0.6-0.1 0.8 0 3.4 0 6.8 0 10.2 0 0.1 0.1 0.3 0.2 0.5 0.2 0 0.4 0.1 0.6 0.1 3.6 0 7.1 0 10.7 0 0.2 0 0.5-0.1 0.7-0.2C53.6 30 53.5 21.5 53.3 20.1zM66.9 20.2c0 0.3-0.1 0.6-0.1 0.8 0 3.3 0 6.6 0 9.9 0 0.3 0.1 0.6 0.2 0.9 0.2 0 0.4 0.1 0.6 0.1 3.6 0 7.1 0 10.7 0 0.2 0 0.5-0.1 0.7-0.2 0.1-0.3 0.1-0.5 0.1-0.7 0-3.4 0-6.7 0-10.1 0-0.3-0.1-0.5-0.2-0.7 -1.2-0.2-8.6-0.3-11.2-0.2C67.4 20 67.2 20.1 66.9 20.2zM66.2 20.2c-1.3-0.2-8.8-0.3-11.3-0.2 -0.3 0-0.5 0.1-0.8 0.1 -0.1 0.3-0.1 0.5-0.1 0.7 0 3.5 0 6.9 0 10.4 0 0.1 0.1 0.3 0.2 0.5 0.3 0 0.6 0.1 0.9 0.1 4.2 0.1 9.7 0.1 11-0.2 0.1-0.1 0.2-0.3 0.2-0.4 0-3.3 0.1-6.6 0.1-9.9C66.4 21 66.3 20.7 66.2 20.2zM66.8 48c0.5 0.2 0.9 0.3 1.3 0.4 1.8 0.7 3 2.4 3 4.2 0 1.9-1.1 3.5-3 4.3 -0.3 0.1-0.6 0.2-0.9 0.3 -0.1 0.1-0.3 0.2-0.4 0.3 0 0.4 0.1 0.7 0.1 1.1 0.3 0.1 0.5 0.2 0.7 0.2 3.6 0 7.1 0 10.7 0 0.2 0 0.5-0.2 0.7-0.2 0.1-0.3 0.1-0.5 0.1-0.7 0-3.7 0-7.4 0-11 0-0.3-0.2-0.6-0.2-0.9 -0.2 0-0.4-0.1-0.6-0.1 -3.6 0-7.1 0-10.7 0 -0.3 0-0.5 0.1-0.8 0.2C66.8 46.7 66.8 47.4 66.8 48zM54.1 45.9c-0.1 0.4-0.2 0.7-0.2 1.1 0 3.6 0 7.1 0 10.7 0 0.3 0.1 0.6 0.2 1 0.5 0.1 0.9 0.1 1.3 0.1 3.1 0 6.3 0 9.4 0 0.3 0 0.5 0 0.8 0 0.4-0.1 0.7-0.4 0.6-0.8 0-0.2-0.1-0.4-0.1-0.6 -0.4-0.2-0.9-0.3-1.2-0.5 -0.6-0.3-1.2-0.6-1.6-1.1 -2.3-2.3-1.4-6.1 1.7-7.3 0.4-0.2 0.9-0.3 1.3-0.5 0-0.7 0.2-1.4-0.2-2 -0.2-0.1-0.3-0.1-0.5-0.1 -3.5 0-6.9 0-10.4 0C54.9 45.8 54.6 45.9 54.1 45.9zM41.2 59.5c-0.1 0.9-0.2 1.7 0.1 2.5 0.4 0.1 0.8 0.1 1.1 0.2 2.1 0.5 3.5 2.2 3.5 4.3 0.1 2.1-1.2 3.8-3.3 4.5 -0.4 0.1-0.9 0.2-1.4 0.4 0 0.6 0.4 0.5 0.7 0.5 3.5 0 7 0 10.5 0 0.3 0 0.5-0.1 0.8-0.2 0.2-1.4 0.1-2.8 0.1-4.1 0-1.4 0-2.7 0-4.1 0-1.3 0.2-2.7-0.2-4 -0.3-0.1-0.6-0.1-0.8-0.1 -3.5 0-7 0-10.5 0C41.7 59.3 41.5 59.4 41.2 59.5zM78.9 40.4c-0.3 0-0.5-0.1-0.7-0.1 -3.5 0-6.9 0-10.4 0 -0.3 0-0.6 0.1-1 0.2 0.1 1.6-0.2 3.1 0.2 4.6 1.3 0.3 7.9 0.4 11.1 0.2 0.3 0 0.6-0.1 0.9-0.2C79.2 43.8 79.2 41.8 78.9 40.4zM54.2 45.2c0.3 0.1 0.6 0.2 0.9 0.2 3.4 0 6.8 0 10.2 0 0.3 0 0.6-0.1 0.9-0.2 0.3-1.6 0.3-3.5-0.1-4.7 -0.2 0-0.4-0.1-0.6-0.1 -3.6 0-7.2 0-10.9 0 -0.1 0-0.3 0.1-0.4 0.1C53.9 41.7 53.9 43.8 54.2 45.2zM66.8 34.8c0.4 0.1 0.7 0.1 0.9 0.1 3.6 0 7.1 0 10.7 0 0.1 0 0.3-0.1 0.6-0.2 0.1-0.7 0.2-1.4-0.1-2.2 -0.3-0.1-0.7-0.2-1.1-0.2 -3.3 0-6.6 0-9.9 0 -0.4 0-0.7 0.1-1.1 0.2C66.8 33.3 66.8 34 66.8 34.8zM54.1 34.8c0.3 0.1 0.6 0.2 0.8 0.2 3.6 0 7.2 0 10.9 0 0.2 0 0.3-0.1 0.4-0.1 0.4-1.2 0.4-1.2-0.1-2.4 -0.2 0-0.5-0.1-0.7-0.1 -3.4 0-6.8 0-10.2 0 -0.3 0-0.6 0.1-0.9 0.2C53.9 33.3 53.9 34 54.1 34.8z"/><path d="M994.3 99.2c-13 0-25.8 0-38.5 0 -0.5-0.5-0.3-1.1-0.3-1.6 0-4.1 0-8.2 0-12.4 0-8.5 0-17 0-25.5 0-0.5 0-1.1 0-1.6 -0.4-0.2-0.7-0.4-1-0.5 -1.6-0.8-2.6-2.2-2.6-4 0-1.8 0.9-3.2 2.5-4.1 0.3-0.2 0.7-0.3 1.1-0.5 0-0.4 0.1-0.7 0.1-1.1 0-8.8 0-17.7 0-26.5 0-0.4 0-0.8-0.1-1.1 -0.4-0.8-0.2-1.7-0.2-2.5 0.6-0.4 1.3-0.2 1.9-0.2 6.9 0 13.9 0 20.8 0 4.9 0 9.9 0 14.8 0 0.6 0 1.2 0 1.8 0.1 0.2 0.8 0.3 1.6 0.1 2.3 -0.3 0.9-0.2 1.8-0.2 2.8 0.4 0.1 0.8 0.2 1.1 0.2 0.6 0 1.3 0 2 0 1.6 0.1 2.7 1.3 2.7 2.7 0 1.4-1.1 2.6-2.7 2.7 -0.6 0.1-1.3 0-2 0 -0.3 0-0.6 0.1-1 0.1 -0.3 0.6-0.2 1.2-0.2 1.8 0 8.1 0 16.2 0 24.2 0 14.3 0 28.5 0 42.8C994.3 97.7 994.3 98.3 994.3 99.2zM993.7 32.5c-0.4-0.1-0.7-0.2-1.1-0.2 -3.3 0-6.6 0-9.9 0 -0.4 0-0.7 0.1-1.1 0.2 -0.1 0.3-0.2 0.6-0.2 0.9 0 3.6 0 7.3 0 10.9 0 0.3 0.1 0.6 0.2 0.9 0.3 0.1 0.6 0.1 0.8 0.1 3.5 0 7 0 10.6 0 0.2 0 0.4-0.1 0.6-0.2 0.1-0.2 0.2-0.4 0.2-0.6 0-3.8 0-7.6 0-11.4C993.8 33 993.7 32.8 993.7 32.5zM981.6 85.1c0.4 0.1 0.7 0.2 1 0.2 3.4 0 6.8 0 10.2 0 0.3 0 0.6-0.2 0.9-0.2 0.1-0.3 0.1-0.5 0.1-0.7 0-3.7 0-7.5 0-11.2 0-0.2-0.1-0.5-0.2-0.8 -0.4 0-0.8-0.1-1.2-0.1 -3.2 0-6.4 0-9.6 0 -0.3 0-0.5 0-0.8 0 -0.4 0.1-0.6 0.3-0.6 0.6 0 0.2 0 0.4 0 0.6 0 3.5 0 6.9 0 10.4C981.4 84.4 981.5 84.7 981.6 85.1zM968.7 58.6c0.4 0.1 0.6 0.2 0.8 0.2 3.6 0 7.2 0 10.9 0 0.1 0 0.3-0.1 0.4-0.2 0.3-1.2 0.4-4.3 0.2-11.3 0-0.4-0.1-0.8-0.1-1.3 -1.4-0.2-2.8-0.1-4.1-0.1 -1.3 0-2.6 0-3.9 0 -1.3 0-2.7-0.1-4.1 0.1 -0.1 0.4-0.1 0.6-0.1 0.9C968.7 50.7 968.7 54.6 968.7 58.6zM993.6 98.6c0.1-0.3 0.2-0.5 0.2-0.7 0-3.8 0-7.6 0-11.4 0-0.2-0.2-0.5-0.2-0.7 -1.7-0.2-10.7-0.2-11.9 0 -0.4 0.5-0.3 1.1-0.3 1.7 0 3.1 0 6.2 0 9.3 0 0.4 0 0.8 0 1.1 0 0.5 0.3 0.7 0.7 0.7 0.2 0 0.4 0 0.6 0 3.2 0 6.5 0 9.7 0C992.9 98.8 993.3 98.7 993.6 98.6zM980.9 86c-0.3-0.1-0.4-0.1-0.5-0.1 -3.6 0-7.3 0-10.9 0 -0.2 0-0.5 0.1-0.7 0.2 -0.2 1.2-0.3 9.5-0.1 11.8 0 0.3 0.1 0.5 0.1 0.8 0.3 0.1 0.6 0.2 0.8 0.2 3.5 0 7 0 10.6 0 0.2 0 0.5-0.2 0.7-0.2 0.2-1.2 0.3-9.4 0.1-11.8C981 86.5 981 86.3 980.9 86zM956 86c-0.1 0.3-0.1 0.5-0.1 0.7 0 3.8 0 7.6 0 11.4 0 0.2 0.1 0.4 0.2 0.6 0.2 0.1 0.5 0.1 0.7 0.2 3.5 0 7 0 10.5 0 0.3 0 0.6-0.2 0.9-0.3 0.1-0.2 0.1-0.4 0.1-0.6 0-3.8 0-7.6 0-11.3 0-0.2-0.2-0.5-0.2-0.7C966.5 85.7 957.5 85.7 956 86zM993.7 58.7c0.3-1.5 0.3-7 0.2-11.5 0-0.4-0.1-0.7-0.2-1.2 -0.4-0.1-0.8-0.1-1.1-0.1 -5.2-0.1-9.6-0.1-11 0.2 -0.1 0.4-0.2 0.8-0.2 1.2 0 3.4 0 6.7 0 10.1 0 1.4 0.1 1.5 1.5 1.5 3.2 0 6.4 0 9.6 0C992.9 58.8 993.2 58.7 993.7 58.7zM968.1 72.5c-0.3-0.1-0.6-0.2-0.8-0.2 -3.5 0-6.9 0-10.4 0 -0.3 0-0.6 0.1-0.9 0.2 -0.1 0.3-0.1 0.5-0.1 0.7 0 3.7 0 7.4 0 11 0 0.3 0.1 0.6 0.2 1 0.5 0 1 0.1 1.5 0.1 3 0 5.9 0 8.9 0 0.3 0 0.5 0 0.8 0 0.7-0.1 0.9-0.3 1-1 0-0.2 0-0.3 0-0.5 0-3.4 0-6.7 0-10.1C968.3 73.3 968.2 72.9 968.1 72.5zM981 72.5c-0.4-0.1-0.6-0.2-0.8-0.2 -3.6 0-7.3 0-10.9 0 -0.1 0-0.3 0.1-0.4 0.2 -0.3 1.3-0.4 5.3-0.2 11.4 0 0.4 0.1 0.8 0.1 1.3 0.5 0.1 0.8 0.2 1.2 0.2 3.2 0 6.4 0 9.6 0 0.2 0 0.4 0 0.6 0 0.5-0.1 0.7-0.3 0.8-0.8 0-0.3 0-0.5 0-0.8 0-3.2 0-6.5 0-9.7C981 73.5 981 73 981 72.5zM980.9 59.5c-0.2-0.1-0.4-0.2-0.6-0.2 -3.6 0-7.2 0-10.9 0 -0.2 0-0.4 0.1-0.6 0.2 -0.2 1.3-0.3 7.4-0.2 11.2 0 0.3 0.1 0.6 0.1 1 0.3 0.1 0.5 0.2 0.7 0.2 3.6 0 7.1 0 10.7 0 0.2 0 0.5-0.1 0.7-0.2C981.1 70 981.1 60.8 980.9 59.5zM993.7 59.5c-1.4-0.3-7.2-0.4-11-0.2 -0.4 0-0.7 0.1-1.1 0.2 -0.1 0.3-0.2 0.6-0.2 0.8 0 3.5 0 6.9 0 10.4 0 0.4 0.2 0.7 0.2 1 0.3 0.1 0.4 0.1 0.6 0.1 3.6 0 7.1 0 10.7 0 0.2 0 0.5-0.1 0.7-0.2C993.9 70.1 993.9 60.9 993.7 59.5zM968.1 59.5c-0.3-0.1-0.6-0.2-0.8-0.2 -3.5 0-6.9 0-10.4 0 -0.3 0-0.6 0.1-0.9 0.2 -0.1 0.2-0.1 0.4-0.1 0.6 0 3.6 0 7.3 0 10.9 0 0.2 0.1 0.5 0.2 0.8 0.3 0.1 0.5 0.1 0.7 0.1 3.5 0 7 0 10.6 0 0.3 0 0.5-0.1 0.8-0.2 0.1-0.4 0.1-0.7 0.1-1C968.4 67.9 968.3 60.8 968.1 59.5zM968.1 20.1c-1 0-2 0-3 0 -1 0-2.1 0-3.1 0 -1 0-1.9 0-2.9 0 -1 0-2-0.1-3 0.1 -0.3 1.4-0.4 5.5-0.2 10.5 0 0.4 0.1 0.7 0.1 1.1 0.3 0.1 0.5 0.1 0.7 0.1 3.6 0 7.1 0 10.7 0 0.2 0 0.5-0.1 0.7-0.2 0.1-0.3 0.1-0.5 0.1-0.7 0-3.4 0-6.8 0-10.2C968.3 20.6 968.2 20.4 968.1 20.1zM968 32.5c-0.2 0-0.4-0.1-0.6-0.1 -3.6 0-7.1 0-10.7 0 -0.2 0-0.4 0.1-0.6 0.2 -0.1 0.2-0.2 0.3-0.2 0.5 0 3.8 0 7.6 0 11.4 0 0.3 0.1 0.5 0.1 0.7 0.5 0.4 1.1 0.3 1.6 0.3 3 0 6 0 8.9 0 0.3 0 0.7 0 1 0 0.4 0 0.6-0.2 0.7-0.6 0.1-0.5 0-0.9-0.4-1.1 -0.4-0.2-0.8-0.3-1.2-0.5 -2.1-1.1-3-3.6-2-5.8 0.5-1.1 1.3-1.8 2.4-2.3 0.4-0.2 0.8-0.4 1.1-0.5C968.3 33.8 968.4 33.1 968 32.5zM968.8 34.4c0.3 0.1 0.4 0.2 0.5 0.3 0.2 0.1 0.4 0.1 0.6 0.2 2 0.6 3.2 2.2 3.3 4.2 0.1 2.1-1.1 3.7-3.1 4.5 -0.4 0.2-0.9 0.3-1.3 0.4 -0.1 0.2-0.1 0.3-0.1 0.4 -0.1 0.8 0.3 1.1 0.9 1.1 0.1 0 0.2 0 0.3 0 3.3 0 6.6 0 9.9 0 0.4 0 0.7-0.1 1.1-0.2 0.1-0.3 0.1-0.5 0.1-0.7 0-3.7 0-7.5 0-11.2 0-0.2-0.1-0.5-0.2-0.8 -0.3-0.1-0.6-0.1-0.8-0.1 -3.4 0-6.8 0-10.2 0 -0.3 0-0.6 0.1-1 0.2C968.8 33.2 968.8 33.8 968.8 34.4zM956 48.7c0.7 0.2 1.2 0.3 1.7 0.4 2.4 0.8 3.7 3.5 2.8 5.9 -0.6 1.4-1.6 2.3-3.1 2.7 -0.4 0.1-0.8 0.2-1.2 0.4 -0.1 0-0.1 0.2-0.1 0.3 0 0.1 0.1 0.2 0.1 0.3 0.3 0.1 0.5 0.2 0.8 0.2 3.5 0 6.9 0 10.4 0 0.3 0 0.5-0.1 0.8-0.2 0.1-0.3 0.1-0.6 0.1-0.8 0-3.6 0-7.3 0-10.9 0-0.3-0.1-0.6-0.2-0.9 -0.3 0-0.5-0.1-0.7-0.1 -3.5 0-7 0-10.6 0 -0.3 0-0.5 0.1-0.8 0.2C955.9 46.9 955.8 47.8 956 48.7zM981 28.2c-0.7 0-1.2 0-1.8-0.1 -0.7 0-1.4 0-2.1 0 -0.8 0-1.5-0.3-2-0.9 -0.6-0.8-0.9-1.7-0.5-2.7 0.4-1 1.2-1.7 2.3-1.7 1-0.1 1.9 0 2.9 0 0.4 0 0.7-0.1 1.1-0.1 0.1-0.9 0.2-1.7-0.1-2.4 -0.3 0-0.5-0.1-0.7-0.1 -3.5 0-7 0-10.6 0 -0.3 0-0.5 0.1-0.8 0.2 0 0.3-0.1 0.5-0.1 0.7 0 3.4 0 6.7 0 10.1 0 0.3 0.1 0.5 0.2 0.8 0.4 0 0.7 0.1 1 0.1 3.4 0 6.7 0 10.1 0 0.3 0 0.6-0.1 1-0.2C981.1 30.6 981.1 29.5 981 28.2zM981.6 31.7c1.3 0.2 8.8 0.3 11.3 0.2 0.3 0 0.5-0.1 0.7-0.1 0.3-1.3 0.3-2.1 0-3.4 -0.2 0-0.4-0.1-0.6-0.1 -3.6 0-7.1 0-10.7 0 -0.2 0-0.5 0.1-0.8 0.2C981.4 29.5 981.3 30.6 981.6 31.7zM981.6 22.7c3.9 0 7.7 0 11.5 0 0.2 0 0.4-0.1 0.6-0.1 0.2-0.8 0.2-1.6 0-2.4 -0.2-0.1-0.4-0.2-0.5-0.2 -3.6 0-7.3 0-10.9 0 -0.2 0-0.4 0.1-0.6 0.1C981.3 21 981.4 21.7 981.6 22.7z"/><path d="M345.6 57.9c-2.3-0.8-3.7-2.2-3.6-4.6 0.1-2.3 1.4-3.6 3.5-4.4 0-0.4 0.1-0.8 0.1-1.1 0-8.8 0-17.7 0-26.5 0-0.4 0-0.8-0.1-1.1 -0.4-0.8-0.2-1.7-0.2-2.6 0.4-0.1 0.8-0.1 1.1-0.2 0.4 0 0.8 0 1.1 0 11.7 0 23.4 0 35.1 0 0.6 0 1.3 0 1.9 0.1 0.7 1.4-0.2 2.6 0 3.8 3.2 0.9 4.8 2.5 4.7 4.8 -0.1 2.3-1.6 3.8-4.6 4.5 -0.3 0.5-0.2 1-0.2 1.6 0 8.7 0 17.3 0 26 0 13.1 0 26.2 0 39.3 0 0.5 0 1-0.1 1.5 -0.5 0-0.9 0.1-1.3 0.1 -7 0-14 0-21 0 -4.8 0-9.6 0-14.5 0 -0.6 0-1.2 0-1.7 0 -0.5-0.6-0.3-1.1-0.3-1.7 0-4.1 0-8.2 0-12.4 0-8.5 0-17 0-25.5C345.6 59.1 345.6 58.6 345.6 57.9zM358.2 32.5c-0.3-0.1-0.5-0.1-0.7-0.1 -3.5 0-7 0-10.6 0 -0.3 0-0.5 0.1-0.8 0.2 0 0.4-0.1 0.7-0.1 1 0 3.6 0 7.1 0 10.7 0 0.3 0.1 0.6 0.2 1 0.3 0.1 0.6 0.2 0.8 0.2 3.5 0 7 0 10.6 0 0.2 0 0.4-0.1 0.7-0.2 0.1-0.4 0.1-0.9 0.1-1.3C358.6 37.7 358.5 33.8 358.2 32.5zM359 32.6c-0.1 0.3-0.1 0.5-0.1 0.7 0 3.7 0 7.5 0 11.2 0 0.3 0.1 0.5 0.2 0.7 1.4 0.3 5.1 0.4 10.7 0.2 0.4 0 0.8-0.1 1.2-0.1 0.1-0.2 0.2-0.4 0.2-0.5 0-3.8 0-7.7 0-11.5 0-0.2-0.1-0.4-0.2-0.7 -0.4-0.1-0.7-0.2-1.1-0.2C366.1 32.1 360.4 32.3 359 32.6zM371.8 45.2c1.4 0.3 6.9 0.4 11 0.2 0.4 0 0.7-0.1 1.1-0.2 0.1-0.3 0.2-0.5 0.2-0.7 0-3.8 0-7.6 0-11.4 0-0.2-0.1-0.4-0.2-0.7 -0.3-0.1-0.6-0.2-0.9-0.2 -3.4 0-6.8 0-10.2 0 -0.3 0-0.6 0.2-0.9 0.2 -0.1 0.3-0.1 0.6-0.1 0.9 0 3.7 0 7.4 0 11C371.6 44.7 371.7 44.9 371.8 45.2zM346.2 98.5c0.5 0.4 1.1 0.3 1.6 0.3 2.9 0 5.8 0 8.8 0 0.4 0 0.8 0 1.1 0 0.5 0 0.7-0.3 0.7-0.7 0-0.2 0-0.4 0-0.6 0-3.4 0-6.8 0-10.2 0-0.4-0.1-0.8-0.2-1.2 -0.3-0.1-0.5-0.1-0.7-0.1 -3.6 0-7.2 0-10.9 0 -0.1 0-0.3 0.1-0.5 0.2 -0.1 0.2-0.2 0.3-0.2 0.4 0 3.8 0 7.7 0 11.5C346.1 98.1 346.2 98.4 346.2 98.5zM359 98.7c0.4 0.1 0.6 0.1 0.9 0.1 3.4 0 6.8 0 10.2 0 0.3 0 0.6-0.1 0.9-0.2 0.1-0.3 0.1-0.5 0.1-0.7 0-3.7 0-7.5 0-11.2 0-0.3-0.1-0.5-0.2-0.8 -0.3-0.1-0.5-0.1-0.7-0.1 -3.5 0-7 0-10.6 0 -0.2 0-0.5 0.1-0.8 0.2 -0.1 0.3-0.1 0.5-0.1 0.7 0 3.7 0 7.5 0 11.2C358.9 98.1 358.9 98.3 359 98.7zM371.7 86c0 0.6-0.1 1-0.1 1.5 0 3.2 0 6.4 0 9.6 0 0.3 0 0.7 0 1 0.1 0.5 0.2 0.7 0.7 0.8 0.2 0 0.4 0 0.6 0 3.2 0 6.5 0 9.7 0 0.4 0 0.7-0.1 1.1-0.2 0.1-0.4 0.2-0.7 0.2-1 0-3.6 0-7.2 0-10.9 0-0.3-0.1-0.6-0.2-0.9C382.3 85.7 373.2 85.7 371.7 86zM371.8 72.5c-0.3 1.3-0.4 6.3-0.2 11.4 0 0.4 0.1 0.8 0.2 1.3 0.4 0.1 0.6 0.2 0.9 0.2 3.5 0 6.9 0 10.4 0 0.3 0 0.6-0.2 0.9-0.2 0.3-1.6 0.2-11.3 0-12.6 -0.3-0.1-0.6-0.2-0.9-0.2C380.1 72.1 373 72.3 371.8 72.5zM346.2 72.5c0 0.4-0.1 0.8-0.1 1.2 0 3.4 0 6.8 0 10.2 0 1.4 0.1 1.5 1.5 1.5 3.1 0 6.3 0 9.4 0 0.4 0 0.8-0.1 1.3-0.1 0.1-0.3 0.2-0.6 0.2-0.8 0-3.7 0-7.5 0-11.2 0-0.2-0.1-0.5-0.2-0.7 -1.2-0.2-8.5-0.3-11.1-0.2C346.8 72.3 346.5 72.4 346.2 72.5zM359 85.2c0.4 0.1 0.8 0.2 1.2 0.2 3.2 0 6.4 0 9.6 0 0.1 0 0.2 0 0.3 0 0.9-0.1 1.1-0.2 1.1-1.2 0-0.1 0-0.1 0-0.2 0-3.5 0-7 0-10.6 0-0.3-0.1-0.6-0.2-0.9 -1.3-0.3-5-0.4-10.8-0.2 -0.4 0-0.8 0.1-1.2 0.1 -0.3 1.3-0.4 6.7-0.2 11.6C358.9 84.4 359 84.8 359 85.2zM359 71.7c0.3 0.1 0.4 0.1 0.5 0.1 3.6 0 7.2 0 10.9 0 0.2 0 0.5-0.1 0.8-0.3 0-4 0.1-8 0-12 -0.3-0.1-0.5-0.2-0.7-0.2 -3.6 0-7.1 0-10.7 0 -0.3 0-0.5 0.1-0.7 0.2 -0.3 1.4-0.3 6-0.2 11.1C358.9 70.9 358.9 71.3 359 71.7zM371.8 59.5c-0.3 1.3-0.4 7.1-0.2 11.1 0 0.4 0.1 0.7 0.2 1.1 0.3 0.1 0.5 0.1 0.7 0.1 3.6 0 7.3 0 10.9 0 0.1 0 0.3-0.1 0.5-0.2 0-0.3 0.1-0.6 0.1-0.9 0.2-3.6 0.1-10-0.2-11.2 -0.2-0.1-0.5-0.2-0.7-0.2 -3.6 0-7.1 0-10.7 0C372.2 59.3 372 59.4 371.8 59.5zM358.3 71.7c0.1-0.3 0.2-0.6 0.2-0.9 0.2-3.3 0.1-10-0.2-11.2 -0.2-0.1-0.4-0.2-0.6-0.2 -3.6 0-7.1 0-10.7 0 -0.3 0-0.5 0.1-0.7 0.2 -0.2 1.3-0.4 7.7-0.2 11.2 0 0.3 0.1 0.6 0.2 0.9 0.2 0.1 0.4 0.2 0.5 0.2 3.6 0 7.3 0 10.9 0C357.8 71.8 358 71.7 358.3 71.7zM359 20.2c-0.1 0.3-0.1 0.4-0.1 0.6 0 3.4 0 6.8 0 10.2 0 0.2 0.1 0.5 0.2 0.7 0.2 0 0.4 0.1 0.5 0.1 3.6 0 7.2 0 10.7 0 0.2 0 0.5-0.1 0.7-0.2 0.1-0.2 0.1-0.4 0.1-0.5 0-3.4 0-6.8 0-10.2 0-0.2-0.1-0.5-0.2-0.7C369.3 19.9 360.3 20 359 20.2zM346.2 31.7c0.3 0.1 0.5 0.1 0.7 0.1 3.6 0 7.3 0 10.9 0 0.1 0 0.3-0.1 0.5-0.2 0.1-0.2 0.2-0.3 0.2-0.4 0-3.5 0-6.9 0-10.4 0-0.2-0.1-0.4-0.1-0.7 -0.3-0.1-0.6-0.2-1-0.2 -3.4 0-6.8 0-10.2 0 -0.3 0-0.6 0.1-0.9 0.1C346 21.6 346 30.1 346.2 31.7zM371.8 46c-0.4 0.9-0.3 1.8-0.1 2.7 0.5 0.2 0.9 0.3 1.4 0.5 1.7 0.7 2.9 2.4 2.9 4.1 0 1.8-1.1 3.5-2.8 4.2 -0.3 0.1-0.7 0.2-1.1 0.4 -0.2 0.1-0.3 0.2-0.4 0.3 0 0.1 0 0.2 0.1 0.2 0.1 0.1 0.2 0.2 0.2 0.2 3.5 0 7 0.1 10.5 0.1 0.4 0 0.8-0.1 1.3-0.1 0.1-0.4 0.2-0.7 0.2-1 0-3.6 0-7.1 0-10.7 0-0.3-0.1-0.6-0.2-0.9 -0.2-0.1-0.4-0.2-0.5-0.2 -3.6 0-7.2 0-10.9 0C372.3 45.9 372.1 45.9 371.8 46zM371.8 31.7c1.5 0.3 10.8 0.2 12 0 0.2-1.1 0.2-1.1-0.5-1.4 -0.2-0.1-0.5-0.2-0.7-0.3 -2.6-1.4-3.1-4.8-1.2-7 0.5-0.6 1.1-1 1.9-1.3 0.8-0.4 0.8-0.4 0.6-1.6 -0.2 0-0.5-0.1-0.8-0.1 -3.5 0-7 0-10.6 0 -0.2 0-0.5 0.1-0.8 0.2 -0.1 0.3-0.1 0.6-0.1 0.9 0 3.2 0 6.4 0 9.6C371.6 31 371.7 31.4 371.8 31.7zM359 48.7c0.5 0.2 1 0.3 1.4 0.4 1.9 0.6 3 2.2 3.1 4.1 0.1 2-1 3.6-3 4.4 -0.4 0.1-0.7 0.2-1.1 0.3 -0.2 0.1-0.2 0.3-0.4 0.5 0.2 0.1 0.3 0.3 0.5 0.3 0.1 0.1 0.3 0 0.5 0 3.4 0 6.7 0 10.1 0 0.4 0 0.9 0.1 1-0.4 0.1-0.6-0.5-0.6-0.9-0.7 -0.2-0.1-0.5-0.2-0.7-0.3 -1-0.5-1.7-1.3-2.1-2.3 -0.9-2.4 0.2-4.9 2.6-5.9 0.4-0.2 1-0.2 1.3-0.7 0-0.8 0.2-1.6-0.2-2.5 -1-0.2-2-0.1-2.9-0.1 -1 0-2.1 0-3.1 0 -1 0-2 0-2.9 0 -1 0-2-0.1-3.1 0.1C358.8 46.9 358.8 47.8 359 48.7zM358.3 45.9c-0.4 0-0.7-0.1-0.9-0.1 -3.4 0-6.8 0-10.2 0 -0.3 0-0.6 0.1-0.9 0.2 -0.3 1.5-0.3 1.7 0.1 2.7 0.5 0.1 1 0.2 1.6 0.4 2.4 0.8 3.7 3.6 2.7 5.9 -0.6 1.4-1.6 2.3-3.1 2.7 -0.4 0.1-0.8 0.2-1.2 0.4 -0.1 0-0.1 0.2-0.1 0.3 0 0.1 0.1 0.2 0.2 0.3 0.3 0.1 0.6 0.2 0.9 0.2 3.3 0 6.6 0 9.9 0 0.3 0 0.5 0 0.8-0.1 0.1 0 0.3-0.2 0.3-0.3 0-0.1-0.1-0.4-0.2-0.4 -0.4-0.2-0.9-0.4-1.3-0.6 -1.8-0.8-3-3.3-2.1-5.5 0.5-1.2 1.3-2.1 2.5-2.6 0.4-0.2 0.8-0.3 1.1-0.5C358.5 47.8 358.6 46.9 358.3 45.9z"/><path d="M181.2 99.2c-13 0-25.8 0-38.5 0 -0.5-0.5-0.3-1.1-0.3-1.6 0-4.2 0-8.3 0-12.5 0-17.6 0-35.1 0-52.7 0-0.6 0-1.2 0-1.8 -0.4-0.2-0.7-0.4-1.1-0.5 -1.6-0.8-2.5-2.2-2.6-4 0-1.9 0.9-3.3 2.6-4.2 0.1-0.1 0.3-0.1 0.5-0.2 0.1-0.1 0.3-0.2 0.4-0.2 0.3-0.4 0.3-0.9 0.1-1.3 -0.4-0.8-0.2-1.7-0.2-2.5 0.6-0.4 1.2-0.3 1.8-0.3 5.2 0 10.4 0 15.6 0 6.7 0 13.3 0 20 0 0.6 0 1.3 0 2 0.1 0.2 0.9 0.3 1.7 0 2.4 -0.2 0.6-0.2 1.2-0.2 1.8 0 8.3 0 16.7 0 25 0 0.4 0 0.9 0 1.3 0.5 0.2 1 0.3 1.4 0.5 3 1.2 4 5.1 1.7 7.4 -0.5 0.5-1.1 0.8-1.8 1.1 -0.4 0.2-0.8 0.3-1.3 0.4 -0.1 4.6 0 9.2-0.1 13.8 0 4.7 0 9.3 0 14C181.2 89.8 181.2 94.4 181.2 99.2zM155 45.2c0.1-0.3 0.1-0.5 0.1-0.7 0-3.7 0-7.5 0-11.2 0-0.3-0.1-0.5-0.2-0.8 -0.3-0.1-0.6-0.1-0.8-0.1 -3.5 0-7 0-10.6 0 -0.2 0-0.4 0.1-0.6 0.2 -0.1 0.2-0.2 0.3-0.2 0.5 0 3.8 0 7.6 0 11.4 0 0.3 0.1 0.5 0.1 0.9 0.4 0.1 0.7 0.2 1.1 0.2C148 45.6 153.7 45.5 155 45.2zM155.8 32.6c0 0.1-0.1 0.3-0.1 0.4 0 3.8 0 7.7 0 11.5 0 0.2 0.1 0.4 0.2 0.7 0.4 0.1 0.7 0.2 1.1 0.2 3.3 0 6.6 0 9.9 0 0.4 0 0.7-0.1 1.1-0.2 0.1-0.3 0.1-0.5 0.1-0.7 0-3.7 0-7.5 0-11.2 0-0.3-0.1-0.5-0.2-0.7 -1.3-0.3-4.2-0.4-10.6-0.2C156.7 32.3 156.2 32.2 155.8 32.6zM180.6 45.2c0.1-0.2 0.2-0.4 0.2-0.6 0-3.8 0-7.6 0-11.4 0-0.2-0.1-0.4-0.2-0.7 -0.4-0.1-0.7-0.2-1.1-0.2 -3.3 0-6.6 0-9.9 0 -0.4 0-0.7 0.1-1.1 0.2 -0.1 0.3-0.2 0.6-0.2 0.9 0 3.6 0 7.3 0 10.9 0 0.3 0.1 0.6 0.2 0.9 0.3 0.1 0.5 0.2 0.7 0.2 3.6 0 7.1 0 10.7 0C180.1 45.4 180.3 45.3 180.6 45.2zM168.4 98.6c1.3 0.2 8.2 0.4 11.2 0.2 0.3 0 0.6-0.1 0.9-0.2 0.3-1.3 0.4-5.7 0.2-11.6 0-0.4-0.1-0.7-0.1-1.1 -0.2-0.1-0.4-0.2-0.5-0.2 -3.6 0-7.2 0-10.9 0 -0.2 0-0.4 0.1-0.6 0.1 -0.1 0.2-0.2 0.3-0.2 0.5 0 3.7 0 7.5-0.1 11.2C168.3 97.9 168.4 98.2 168.4 98.6zM167.8 98.6c0.1-0.3 0.2-0.5 0.2-0.8 0-3.7 0-7.4 0-11.1 0-0.3-0.2-0.6-0.3-1 -3.7 0-7.4 0-11.1 0 -0.3 0-0.5 0.1-0.8 0.1 -0.1 0.2-0.2 0.4-0.2 0.5 0 3.8 0 7.7 0 11.5 0 0.2 0.1 0.4 0.1 0.6 0.2 0.1 0.3 0.2 0.5 0.2 3.6 0 7.3 0 10.9 0C167.3 98.8 167.5 98.7 167.8 98.6zM155 86c-0.4-0.1-0.5-0.1-0.7-0.1 -3.6 0-7.1 0-10.7 0 -0.2 0-0.5 0.1-0.8 0.2 -0.1 0.3-0.1 0.5-0.1 0.7 0 3.7 0 7.5 0 11.2 0 0.2 0.1 0.5 0.2 0.8 0.4 0 0.7 0.1 1 0.1 3.2 0 6.5 0 9.7 0 1.4 0 1.5-0.1 1.5-1.5 0-3.4 0-6.7 0-10.1C155.2 86.8 155.1 86.4 155 86zM155.1 58.6c0.1-0.4 0.1-0.7 0.1-1 0-3.6 0-7.1 0-10.7 0-0.3-0.1-0.6-0.2-0.9 -0.3 0-0.6-0.1-0.9-0.1 -3.4 0-6.8 0-10.2 0 -0.3 0-0.6 0.1-0.9 0.2 -0.1 0.2-0.2 0.4-0.2 0.5 0 3.7 0 7.5 0 11.2 0 0.3 0.1 0.5 0.1 0.8 0.3 0.1 0.5 0.2 0.8 0.2C145.3 58.9 153.9 58.8 155.1 58.6zM167.8 58.7c0.1-0.3 0.1-0.5 0.1-0.6 0-3.8 0-7.6 0-11.4 0-0.2-0.2-0.5-0.2-0.7 -0.3 0-0.5-0.1-0.7-0.1 -3.5 0-6.9 0-10.4 0 -0.3 0-0.6 0.1-0.9 0.2 -0.1 0.2-0.1 0.4-0.1 0.6 0 3.8 0 7.6 0 11.4 0 0.2 0.2 0.5 0.3 0.8 3.6 0.1 7.3 0 10.9 0C167.1 58.8 167.4 58.7 167.8 58.7zM180.6 85.2c0.1-0.4 0.1-0.6 0.1-0.8 0-3.7 0-7.5 0-11.2 0-0.2-0.1-0.5-0.2-0.8 -0.5 0-0.9-0.1-1.3-0.1 -3.1 0-6.2 0-9.2 0 -0.3 0-0.5 0-0.8 0 -0.5 0.1-0.7 0.3-0.8 0.8 0 0.2 0 0.3 0 0.5 0 3.5 0 6.9 0 10.4 0 0.4 0.1 0.7 0.2 1.1 0.3 0.1 0.5 0.2 0.7 0.2 3.5 0 7 0 10.5 0C180 85.3 180.2 85.2 180.6 85.2zM142.9 85.2c0.6 0 1.1 0.1 1.6 0.1 3 0 5.9 0 8.9 0 0.3 0 0.7 0 1 0 0.5 0 0.7-0.3 0.8-0.7 0-0.2 0-0.4 0-0.6 0-3.5 0-7 0-10.5 0-0.3-0.1-0.6-0.2-1 -0.3-0.1-0.6-0.2-0.8-0.2 -3.5 0-6.9 0-10.4 0 -0.3 0-0.6 0.2-1 0.3 -0.1 3.8 0 7.6-0.1 11.4C142.8 84.3 142.9 84.7 142.9 85.2zM155.8 85.2c0.5 0.1 0.9 0.2 1.3 0.2 3.1 0 6.3 0 9.4 0 1.4 0 1.5-0.1 1.5-1.5 0-3.4 0-6.8 0-10.2 0-0.4-0.1-0.7-0.1-1.1 -0.3-0.1-0.6-0.2-0.8-0.2 -3.5 0-6.9 0-10.4 0 -0.3 0-0.6 0.2-1 0.3 -0.1 4 0 7.8 0 11.7C155.6 84.6 155.7 84.8 155.8 85.2zM155.8 71.7c0.2 0.1 0.4 0.1 0.6 0.1 3.6 0 7.2 0 10.9 0 0.2 0 0.4-0.1 0.7-0.2 0.1-1.4 0.1-2.7 0.1-4 0-1.4 0-2.7 0-4.1 0-1.3 0.2-2.7-0.2-4 -0.3-0.1-0.6-0.2-0.8-0.2 -3.5 0-6.9 0-10.4 0 -0.3 0-0.6 0.2-0.9 0.2C155.5 61.4 155.5 70.4 155.8 71.7zM142.9 59.5c-0.1 0.3-0.1 0.5-0.1 0.6 0 3.6 0 7.1 0 10.7 0 0.3 0.1 0.6 0.2 0.9 0.3 0.1 0.4 0.1 0.6 0.1 3.6 0 7.3 0 10.9 0 0.2 0 0.4-0.1 0.6-0.2 0-0.4 0.1-0.7 0.1-1 0-3.4 0-6.8 0-10.2 0-0.3-0.1-0.6-0.2-1 -0.3-0.1-0.6-0.1-0.9-0.1 -3.5 0-7 0-10.6 0C143.4 59.3 143.2 59.4 142.9 59.5zM180.6 71.6c0-0.3 0.1-0.7 0.1-1.1 0.2-5 0.1-9.7-0.2-11 -1.2-0.3-4.5-0.4-10.7-0.3 -0.5 0-1-0.1-1.4 0.3 -0.2 1.1-0.4 8.4-0.2 11.2 0 0.3 0.1 0.6 0.2 0.9 0.3 0.1 0.5 0.1 0.7 0.1 3.6 0 7.3 0 10.9 0C180.2 71.8 180.4 71.7 180.6 71.6zM180.5 46c-0.2-0.1-0.5-0.1-0.7-0.2 -2.2-0.1-10.1 0-11.2 0.1 -0.4 0.3-0.3 0.8-0.3 1.2 0 3.5 0 6.9 0 10.4 0 0.4 0.1 0.7 0.2 1.1 0.5 0 0.9 0.1 1.3 0.1 3.1 0 6.2 0 9.3 0 0.3 0 0.6 0 1-0.1 0.4 0 0.6-0.3 0.6-0.6 0-0.3-0.1-0.5-0.1-0.7 -0.6-0.2-1.1-0.4-1.6-0.7 -0.9-0.4-1.5-1.1-1.9-1.9 -1.4-2.6 0-5.3 2.2-6.3 0.4-0.2 0.9-0.4 1.4-0.5C180.7 47.3 180.9 46.7 180.5 46zM167.8 20.1c-0.3-0.1-0.5-0.1-0.7-0.1 -3.5 0-7 0-10.6 0 -0.3 0-0.5 0.1-0.7 0.1 -0.3 1.3-0.4 7-0.2 10.6 0 0.3 0.1 0.6 0.2 0.9 0.3 0.1 0.5 0.1 0.7 0.1 3.6 0 7.3 0 10.9 0 0.2 0 0.3-0.1 0.5-0.2 0-0.4 0-0.7 0-1 -0.5-0.2-0.9-0.3-1.3-0.5 -1.8-0.7-2.8-2.3-2.8-4.2 0-1.9 1.1-3.5 3-4.2 0.4-0.2 0.8-0.3 1.2-0.4 0-0.3 0.1-0.4 0.1-0.6C167.9 20.6 167.9 20.4 167.8 20.1zM168.4 30.7c0 0.4 0 0.7 0.1 0.9 0.2 0.4 0.5 0.3 0.9 0.3 3.5 0 6.9 0 10.4 0 0.3 0 0.6-0.1 0.9-0.2 0.1-0.2 0.1-0.4 0.1-0.6 0-3.4 0-6.8 0-10.2 0-0.2-0.1-0.5-0.2-0.8 -3.9-0.1-7.7-0.1-11.6 0 -0.1 0-0.3 0.1-0.5 0.2 0 0.4 0 0.7 0 1.1 0.5 0.2 0.9 0.3 1.3 0.4 1.8 0.7 3 2.3 3 4.2 0 1.8-1.1 3.5-2.8 4.2C169.5 30.3 169 30.5 168.4 30.7zM142.9 21.3c0.6 0.1 1.1 0.2 1.6 0.4 1.8 0.6 3.1 2.2 3.1 4.1 0.1 1.9-1.1 3.6-2.8 4.3 -0.5 0.2-1.1 0.3-1.7 0.5 -0.1 0-0.2 0.1-0.3 0.3 0 0.3 0.1 0.6 0.1 0.9 0.3 0.1 0.5 0.1 0.7 0.1 3.6 0 7.2 0 10.9 0 0.1 0 0.3-0.1 0.5-0.2 0.1-0.2 0.2-0.5 0.2-0.7 0-3.4 0-6.7 0-10.1 0-0.2-0.1-0.5-0.2-0.7 -1.2-0.2-8.9-0.3-11.3-0.1 -0.3 0-0.5 0.1-0.8 0.1C142.9 20.6 142.9 20.9 142.9 21.3z"/><path d="M1056.5 17.5c1.5-0.2 37.7-0.2 39.2 0 0.3 0.7 0.2 1.5 0.1 2.3 -0.1 0.6-0.2 1.2-0.3 1.7 0 3.9 0 7.8 0 11.7 0 0.4 0.1 0.8 0.1 1.3 2.3 0.7 3.9 2 3.9 4.4 0.1 2.6-1.6 4-3.9 4.8 0 0.5-0.1 0.9-0.1 1.3 0 4.6 0 9.2 0 13.8 0 5.4 0 10.7 0 16.1 0 7.3 0 14.6 0 22 0 0.6 0 1.3 0 1.9 -0.5 0.5-1 0.4-1.4 0.4 -3.9 0-7.8 0-11.7 0 -7.8 0-15.6 0-23.4 0 -0.6 0-1.3 0-1.8 0 -0.5-0.5-0.3-1-0.3-1.5 0-4.1 0-8.1 0-12.2 0-17.8 0-35.6 0-53.3 0-3.5 0-6.9 0-10.4 0-0.6 0-1.3-0.3-1.9C1056.2 19.2 1056.4 18.4 1056.5 17.5zM1082.9 98.6c1 0.5 2 0.2 3 0.2 1 0 1.9 0 2.9 0 1 0 2.1 0 3.1 0 1 0 2 0.1 3.1-0.2 0.1-0.3 0.2-0.6 0.2-0.8 0-3.7 0-7.4 0-11 0-0.3-0.2-0.6-0.2-0.9 -0.2-0.1-0.4-0.1-0.6-0.1 -3.6 0-7.1 0-10.7 0 -0.2 0-0.5 0.1-0.7 0.2C1082.7 87.4 1082.7 97.1 1082.9 98.6zM1083 45.8c-0.3 1.4-0.4 5.3-0.3 11.7 0 0.4 0.1 0.7 0.1 1 1.4 0.3 5.3 0.4 10.9 0.2 0.4 0 0.7-0.1 1.1-0.2 0.1-0.4 0.2-0.8 0.2-1.2 0-3.5 0-6.9 0-10.4 0-0.4-0.1-0.7-0.2-1.1 -0.3-0.1-0.6-0.1-0.8-0.1C1090.4 45.8 1086.8 45.8 1083 45.8zM1057.3 98.6c0.3 0.1 0.5 0.2 0.7 0.2 3.6 0 7.2 0 10.7 0 0.2 0 0.4-0.1 0.6-0.2 0.1-0.2 0.2-0.4 0.2-0.6 0-3.8 0-7.6 0-11.4 0-0.2-0.2-0.5-0.3-0.8 -3.8 0-7.5 0-11.2 0 -0.2 0-0.4 0.1-0.7 0.2 -0.1 0.3-0.1 0.5-0.2 0.8C1057 88.6 1057.1 97.4 1057.3 98.6zM1082.2 85.1c0.1-0.3 0.2-0.7 0.2-1.1 0-3.5 0-7 0-10.6 0-0.4-0.1-0.7-0.2-1.1 -0.3-0.1-0.5-0.1-0.7-0.1 -3.5 0-6.9 0-10.4 0 -0.3 0-0.6 0.1-0.9 0.2 -0.1 0.3-0.1 0.5-0.1 0.7 0 3.7 0 7.4 0 11 0 0.3 0.2 0.6 0.2 0.9 0.3 0.1 0.6 0.1 0.9 0.1 3.5 0 7 0 10.6 0C1081.8 85.3 1081.9 85.2 1082.2 85.1zM1083 85.2c0.4 0.1 0.8 0.1 1.2 0.1 3.2 0 6.4 0 9.6 0 0.3 0 0.6 0 0.8-0.1 0.2-0.1 0.4-0.3 0.6-0.5 0.1-0.2 0.1-0.4 0.1-0.6 0-3.6 0-7.2 0-10.9 0-0.3-0.2-0.6-0.3-0.8 -0.2-0.1-0.4-0.1-0.6-0.1 -3.5 0-7 0-10.5 0 -0.3 0-0.6 0.1-0.9 0.2C1082.7 74.1 1082.7 83.8 1083 85.2zM1070.1 86c0 0.4-0.1 0.7-0.1 1 0 3.7 0 7.4 0 11.1 0 0.2 0.1 0.3 0.2 0.5 0.3 0.1 0.7 0.2 1.1 0.2 3.8 0.2 9.7 0.1 10.9-0.2 0.1-0.3 0.2-0.7 0.2-1 0-3.5 0-7 0-10.6 0-0.4-0.1-0.7-0.2-1.1 -0.3 0-0.6-0.1-0.9-0.1 -3.5 0-7 0-10.6 0C1070.5 85.8 1070.4 85.9 1070.1 86zM1069.3 85.1c0.3-1.5 0.2-11.3 0-12.7 -0.3-0.1-0.7-0.2-1.1-0.2 -3.3 0-6.6 0-9.9 0 -0.4 0-0.7 0.1-1.1 0.2 -0.1 0.3-0.1 0.5-0.1 0.7 0 3.7 0 7.4 0 11.1 0 0.3 0.2 0.6 0.2 0.9 0.3 0.1 0.6 0.1 0.9 0.1 3.5 0 7 0 10.6 0C1069 85.3 1069.1 85.2 1069.3 85.1zM1069.4 58.6c0-0.3 0.1-0.6 0.1-0.8 0-3.6 0-7.2 0-10.9 0-0.3-0.1-0.6-0.2-1 -0.3 0-0.6-0.1-0.9-0.1 -3.4 0-6.8 0-10.2 0 -0.3 0-0.6 0.1-0.9 0.1 -0.1 0.4-0.1 0.6-0.1 0.9 0 3.6 0 7.3 0 10.9 0 0.3 0.1 0.6 0.2 0.9 1.2 0.3 8.1 0.4 11.1 0.2C1068.8 58.8 1069.1 58.7 1069.4 58.6zM1070.2 46c-0.1 0.4-0.2 0.7-0.2 1 0 3.6 0 7.1 0 10.7 0 0.3 0.1 0.6 0.2 1 0.4 0.1 0.8 0.1 1.2 0.1 3.2 0 6.4 0 9.6 0 0.3 0 0.5 0 0.8-0.1 0.4-0.1 0.6-0.3 0.6-0.6 0-0.2 0-0.4 0-0.6 0-3.5 0-6.9 0-10.4 0-0.4-0.1-0.7-0.2-1.1C1080.9 45.8 1072 45.7 1070.2 46zM1057.3 59.5c-0.1 0.3-0.1 0.5-0.1 0.6 0 3.6 0 7.1 0 10.7 0 0.3 0.1 0.6 0.2 0.9 0.2 0.1 0.4 0.1 0.5 0.1 3.6 0 7.1 0 10.7 0 0.3 0 0.5-0.1 0.8-0.2 0.1-1.4 0-2.7 0-4.1 0-1.4 0-2.7 0-4.1 0-1.3 0.2-2.7-0.2-4 -0.3-0.1-0.6-0.1-0.8-0.1 -3.5 0-7 0-10.5 0C1057.8 59.3 1057.6 59.4 1057.3 59.5zM1095 59.5c-0.3-0.1-0.5-0.2-0.7-0.2 -3.6 0-7.1 0-10.7 0 -0.2 0-0.4 0.1-0.7 0.2 -0.1 0.2-0.1 0.4-0.1 0.6 0 3.6 0 7.3 0 10.9 0 0.2 0.1 0.5 0.2 0.8 0.3 0 0.6 0.1 0.9 0.1 3.4 0 6.8 0 10.2 0 0.3 0 0.6-0.1 0.9-0.2 0.1-0.2 0.2-0.4 0.2-0.6 0-3.6 0-7.1 0-10.7C1095.1 60.1 1095.1 59.9 1095 59.5zM1082.3 59.5c-1.5-0.3-6.3-0.4-10.9-0.2 -0.4 0-0.8 0.1-1.3 0.2 -0.1 0.3-0.2 0.5-0.2 0.7 0 3.7 0 7.3 0 11 0 0.1 0.1 0.3 0.2 0.5 0.3 0 0.6 0.1 0.9 0.1 3.8 0.2 9.8 0.1 11.1-0.2 0.1-0.3 0.2-0.6 0.2-0.9C1082.4 67 1082.4 63.3 1082.3 59.5zM1057.3 20.2c-0.1 0.3-0.2 0.6-0.2 0.9 0 3.2 0 6.5 0 9.7 0 0.3 0.1 0.6 0.2 0.9 0.3 0 0.6 0.1 0.9 0.1 3.4 0 6.8 0 10.2 0 0.3 0 0.6-0.1 1-0.2 0-1 0-2 0-3 0-0.9 0-1.8 0-2.8 0-1 0-1.9 0-2.9 0-1 0.1-1.9-0.1-2.9 -0.3-0.1-0.5-0.1-0.7-0.1 -3.6 0-7.2 0-10.9 0C1057.7 20.1 1057.5 20.1 1057.3 20.2zM1070.1 34.7c0.5 0.3 0.9 0.5 1.3 0.7 2.9 1.9 2.8 5.9-0.1 7.7 -0.3 0.2-0.6 0.3-0.9 0.4 -0.4 0.3-0.5 0.7-0.4 1.3 0.1 0.5 0.5 0.5 0.9 0.5 0.1 0 0.2 0 0.3 0 3.4 0 6.7 0 10.1 0 0.3 0 0.6-0.1 0.9-0.2 0.1-0.3 0.1-0.6 0.1-0.9 0-3.6 0-7.3 0-10.9 0-0.3-0.1-0.6-0.2-0.9 -0.3-0.1-0.5-0.1-0.7-0.1 -3.5 0-7 0-10.6 0 -0.2 0-0.5 0.1-0.8 0.2C1069.9 33.2 1070 33.9 1070.1 34.7zM1095.1 44c-0.6-0.2-1.2-0.4-1.7-0.6 -1.2-0.5-2-1.3-2.4-2.5 -0.9-2.3 0.2-4.9 2.6-5.8 0.5-0.2 1-0.3 1.6-0.5 0-0.5 0-0.9 0-1.4 0-0.5-0.3-0.7-0.7-0.8 -0.2 0-0.4 0-0.6 0 -3.2 0-6.4 0-9.6 0 -0.4 0-0.8 0.1-1.3 0.1 -0.1 0.3-0.2 0.5-0.2 0.7 0 3.8 0 7.7 0 11.5 0 0.2 0.1 0.3 0.2 0.5 0.4 0 0.8 0.1 1.2 0.1 3.2 0 6.4 0 9.6 0 0.3 0 0.6 0 0.8-0.1 0.2-0.1 0.4-0.3 0.5-0.5C1095.2 44.5 1095.1 44.3 1095.1 44zM1069.4 32.4c-0.4-0.1-0.6-0.1-0.9-0.1 -3.4 0-6.8 0-10.2 0 -0.3 0-0.6 0.1-0.9 0.2 -0.1 0.3-0.1 0.5-0.1 0.7 0 3.7 0 7.5 0 11.2 0 0.3 0.1 0.5 0.2 0.8 0.3 0.1 0.5 0.1 0.7 0.1 3.5 0 7 0 10.6 0 0.3 0 0.5-0.1 0.8-0.2 0-0.5 0-0.9 0-1.3 -0.7-0.2-1.4-0.3-2-0.6 -1.9-0.7-3-2.5-2.9-4.5 0.1-2 1.5-3.7 3.6-4.1 0.4-0.1 0.8-0.2 1.3-0.3C1069.6 33.8 1069.6 33.2 1069.4 32.4zM1095 20.1c-0.5 0-0.9-0.1-1.4-0.1 -3.1 0-6.3 0-9.4 0 -0.3 0-0.6 0-1 0.1 -0.1 0-0.3 0.1-0.4 0.2 0 0.5 0 0.9 0 1.3 0.5 0.2 1 0.3 1.4 0.5 2.5 1 3.5 3.8 2.4 6.2 -0.5 1.1-1.4 1.8-2.5 2.2 -0.4 0.2-0.9 0.3-1.4 0.5 0.2 0.3 0.3 0.6 0.5 0.7 0.2 0.1 0.5 0.1 0.8 0.1 3.4 0 6.7 0 10.1 0 0.3 0 0.6-0.1 0.9-0.1 0.3-1.4 0.4-4.6 0.2-10.3C1095.1 21 1095.1 20.6 1095 20.1zM1070.2 20.2c-0.1 0.3-0.1 0.4-0.1 0.5 0 3.5 0 6.9 0 10.4 0 0.2 0.1 0.5 0.2 0.7 0.2 0.1 0.4 0.1 0.6 0.1 3.6 0 7.2 0 10.7 0 0.1 0 0.1 0 0.2 0 0.3 0 0.5-0.1 0.6-0.4 0.1-0.3-0.1-0.5-0.4-0.6 -0.3-0.1-0.6-0.2-0.9-0.3 -1.8-0.8-2.8-2.2-2.9-4.2 -0.1-1.9 1.1-3.5 2.9-4.3 0.4-0.2 0.8-0.3 1.2-0.4 0.3-0.5 0.2-1 0-1.5 -0.2-0.1-0.3-0.2-0.5-0.2 -3.6 0-7.3 0-10.9 0C1070.6 20 1070.4 20.1 1070.2 20.2z"/><path d="M244 43.9c-0.5-0.2-1-0.4-1.4-0.6 -1.7-0.8-2.7-2.2-2.6-4.1 0-1.9 1-3.3 2.7-4.1 0.4-0.2 0.8-0.3 1.3-0.5 0-0.4 0.1-0.8 0.1-1.3 0-3.8 0-7.7 0-11.5 0-0.6 0-1.3-0.3-1.9 -0.3-0.7-0.1-1.5-0.1-2.2 0.7-0.4 1.3-0.2 2-0.2 6.7 0 13.3 0 20 0 5.1 0 10.2 0 15.3 0 0.6 0 1.3 0 2 0 0.4 0.8 0.3 1.6 0.2 2.4 -0.1 0.6-0.3 1.2-0.3 1.7 0 7.9 0 15.7 0 23.6 0 5.5 0 10.9 0 16.4 0 11.8 0 23.6 0 35.4 0 0.6 0 1.3 0 1.8 -0.5 0.5-1 0.4-1.5 0.4 -3.8 0-7.7 0-11.5 0 -7.9 0-15.8 0-23.7 0 -0.6 0-1.2 0-1.7 0 -0.4-0.5-0.3-1-0.3-1.5 0-4.4 0-8.9 0-13.3 0-13.2 0-26.3 0-39.5C244 44.6 244 44.3 244 43.9zM282.2 45.2c0.1-0.3 0.2-0.5 0.2-0.7 0-3.8 0-7.7 0-11.5 0-0.1-0.1-0.3-0.2-0.5 -0.2-0.1-0.5-0.2-0.7-0.2 -3.5 0-6.9 0-10.4 0 -0.3 0-0.6 0.2-0.9 0.2 -0.1 0.2-0.1 0.4-0.1 0.6 0 3.8 0 7.7 0 11.5 0 0.2 0.1 0.4 0.2 0.5 1.3 0.3 8 0.4 11.1 0.2C281.6 45.4 281.9 45.3 282.2 45.2zM269.4 45.3c0.1-0.3 0.2-0.5 0.2-0.7 0-3.7 0-7.5 0-11.2 0-0.3-0.2-0.6-0.3-0.9 -0.2-0.1-0.4-0.1-0.6-0.1 -3.5 0-7 0-10.5 0 -0.3 0-0.6 0.2-0.9 0.2 -0.1 0.3-0.1 0.5-0.1 0.7 0 3.7 0 7.4 0 11 0 0.3 0.1 0.6 0.2 0.9 0.3 0.1 0.5 0.1 0.7 0.2 3.5 0 6.9 0 10.4 0C268.8 45.4 269.1 45.3 269.4 45.3zM282.2 85.9c-0.3-0.1-0.5-0.1-0.6-0.1 -3.6 0-7.1 0-10.7 0 -0.2 0-0.5 0.1-0.8 0.2 0 0.3-0.1 0.5-0.1 0.7 0 3.7 0 7.5 0 11.2 0 0.3 0.1 0.5 0.1 0.7 1.4 0.3 6.6 0.4 11.1 0.2 0.3 0 0.6-0.1 0.9-0.1 0.1-0.3 0.2-0.5 0.2-0.7 0-3.8 0-7.6 0-11.3C282.4 86.4 282.3 86.2 282.2 85.9zM244.5 85.9c-0.1 0.4-0.1 0.8-0.1 1.1 0 3.6 0 7.2 0 10.7 0 0.3 0.1 0.6 0.2 0.9 1.2 0.3 8.3 0.4 11.1 0.2 0.3 0 0.6-0.1 0.9-0.2 0-0.3 0.1-0.6 0.1-0.8 0-3.6 0-7.3 0-10.9 0-0.3-0.1-0.6-0.2-0.9 -0.2-0.1-0.4-0.2-0.5-0.2 -3.5 0-7 0-10.6 0C245.2 85.8 245 85.9 244.5 85.9zM282.3 58.6c0.1-0.3 0.1-0.6 0.1-0.8 0-3.7 0-7.4 0-11 0-0.3-0.2-0.6-0.2-0.9 -0.2 0-0.4-0.1-0.6-0.1 -3.5 0-7 0-10.6 0 -0.3 0-0.6 0.1-1 0.2 0 3.9 0 7.8 0 11.7 0 0.3 0.1 0.5 0.1 0.7 0.2 0.1 0.4 0.2 0.5 0.2 3.6 0 7.3 0 10.9 0C281.7 58.8 281.9 58.7 282.3 58.6zM257.4 86c-0.1 0.2-0.1 0.4-0.1 0.6 0 3.8 0 7.6 0 11.4 0 0.2 0.1 0.4 0.2 0.6 0.2 0.1 0.4 0.2 0.6 0.2 3.6 0 7.2 0 10.7 0 0.2 0 0.4-0.1 0.6-0.2 0.1-0.2 0.2-0.4 0.2-0.6 0-3.7 0-7.5 0-11.2 0-0.3-0.1-0.5-0.2-0.8 -0.2-0.1-0.4-0.1-0.6-0.2 -3.6 0-7.3 0-10.9 0C257.7 85.8 257.6 85.9 257.4 86zM244.6 46c-0.1 0.3-0.2 0.7-0.2 1 0 3.5 0 7 0 10.6 0 0.4 0.1 0.7 0.2 1.1 0.3 0.1 0.5 0.1 0.7 0.1 3.5 0 6.9 0 10.4 0 0.3 0 0.6-0.1 0.9-0.2 0.1-0.2 0.1-0.4 0.1-0.5 0-3.8 0-7.6 0-11.4 0-0.2-0.1-0.5-0.2-0.7C255 45.8 245.9 45.8 244.6 46zM257.4 46c-0.1 0.4-0.2 0.7-0.2 1 0 3.6 0 7.1 0 10.7 0 0.3 0.1 0.6 0.2 1 0.4 0.1 0.8 0.2 1.2 0.2 3.2 0 6.4 0 9.6 0 1.4 0 1.5-0.1 1.5-1.5 0-3.4 0-6.7 0-10.1 0-0.4-0.1-0.8-0.2-1.2 -1.4-0.3-5.6-0.4-10.9-0.2C258.2 45.9 257.8 45.9 257.4 46zM256.6 72.4c-0.4-0.1-0.7-0.1-1-0.1 -3.4 0-6.7 0-10.1 0 -0.3 0-0.6 0.1-0.9 0.2 -0.3 1.3-0.4 7.4-0.2 11.6 0 0.4 0.1 0.7 0.2 1.1 0.3 0.1 0.5 0.2 0.7 0.2 3.6 0 7.2 0 10.7 0 0.2 0 0.4-0.1 0.6-0.2 0-0.4 0.1-0.7 0.1-1C256.9 80.3 256.8 73.9 256.6 72.4zM257.4 85.2c0.4 0.1 0.7 0.1 1 0.1 3.5 0 7 0 10.6 0 0.2 0 0.3-0.1 0.5-0.2 0.1-0.3 0.2-0.7 0.2-1.1 0-3.5 0-7 0-10.6 0-0.4-0.1-0.7-0.2-1 -0.3-0.1-0.4-0.1-0.6-0.1 -3.6 0-7.1 0-10.7 0 -0.2 0-0.5 0.1-0.7 0.2 -0.2 1.4-0.3 6.9-0.2 11.4C257.2 84.3 257.3 84.7 257.4 85.2zM282.2 85.1c0.1-0.5 0.1-0.9 0.1-1.3 0-3.4 0-6.7 0-10.1 0-0.3 0-0.5-0.1-0.8 -0.1-0.4-0.3-0.6-0.6-0.6 -0.2 0-0.3 0-0.5 0 -3.4 0-6.8 0-10.2 0 -0.3 0-0.6 0.2-0.9 0.2 -0.1 0.2-0.1 0.4-0.1 0.6 0 3.8 0 7.6 0 11.3 0 0.3 0.1 0.5 0.2 0.7C271.6 85.4 280.7 85.4 282.2 85.1zM256.6 71.6c0-0.2 0.1-0.5 0.1-0.8 0.1-2.6 0-10.2-0.2-11.4 -0.2-0.1-0.5-0.2-0.7-0.2 -3.6 0-7.1 0-10.7 0 -0.2 0-0.4 0.1-0.6 0.2 -0.2 1.2-0.3 7.7-0.2 11.2 0 0.3 0.1 0.6 0.1 0.9 0.2 0.1 0.4 0.2 0.5 0.2 3.7 0 7.4 0 11 0C256.2 71.8 256.4 71.7 256.6 71.6zM270.2 71.7c1 0.2 2 0.1 3 0.1 1 0 2.1 0 3.1 0 1 0 1.9 0 2.9 0 1 0 2 0.1 3-0.1 0.1-0.3 0.2-0.5 0.2-0.7 0-3.6 0-7.2 0-10.9 0-0.2-0.1-0.4-0.2-0.7 -0.3-0.1-0.6-0.2-1-0.2 -3.4 0-6.8 0-10.2 0 -0.3 0-0.6 0.1-0.9 0.2C269.9 61 270 70.3 270.2 71.7zM269.4 59.5c-0.3-0.1-0.5-0.1-0.6-0.1 -3.6 0-7.1 0-10.7 0 -0.2 0-0.5 0.1-0.8 0.2 0 0.3-0.1 0.5-0.1 0.7 0 3.6 0 7.1 0 10.7 0 0.3 0.1 0.5 0.2 0.8 1.4 0.2 2.7 0.1 4.1 0.1 1.3 0 2.6 0 3.9 0 1.3 0 2.7 0.2 4-0.1 0.1-0.3 0.2-0.5 0.2-0.7 0-3.6 0-7.2 0-10.9C269.6 59.9 269.5 59.7 269.4 59.5zM256.6 31.7c0.2-1 0.1-2 0.1-3 0-0.9 0-1.8 0-2.8 0-1 0-1.9 0-2.9 0-1 0.1-1.9-0.1-2.9 -0.2-0.1-0.4-0.2-0.5-0.2 -3.6 0-7.2 0-10.9 0 -0.2 0-0.4 0.1-0.6 0.1 -0.3 1.2-0.4 4.9-0.3 10.4 0 0.4 0.1 0.8 0.2 1.2C246 31.9 255.1 31.9 256.6 31.7zM244.6 34.6c0.5 0.2 1 0.3 1.5 0.4 1.7 0.7 2.9 2.3 2.9 4.1 0 1.9-0.9 3.3-2.6 4.1 -0.6 0.3-1.2 0.5-1.7 0.7 -0.1 0.2-0.1 0.3-0.1 0.4 0 0.9 0.1 1 0.9 1 0.1 0 0.2 0 0.3 0 3.3 0 6.6 0 9.9 0 0.4 0 0.7-0.1 1.1-0.2 0-0.3 0.1-0.6 0.1-0.9 0-3.6 0-7.3 0-10.9 0-0.3-0.1-0.6-0.2-0.9 -1.4-0.3-5.7-0.4-10.9-0.2 -0.4 0-0.7 0.1-1.1 0.2C244.4 33.5 244.4 33.5 244.6 34.6zM282.2 31.7c0.3-1.3 0.4-4.5 0.2-10.3 0-0.4-0.1-0.8-0.1-1.3 -0.3-0.1-0.5-0.2-0.7-0.2 -3.6 0-7.2 0-10.7 0 -0.2 0-0.5 0.1-0.7 0.2 0 0.6 0 1.1 0 1.7 0.5 0.2 0.9 0.4 1.3 0.6 1.7 0.8 2.5 2.2 2.6 4 0 1.9-0.9 3.3-2.6 4.2 -0.3 0.1-0.6 0.2-0.9 0.4 -0.3 0.1-0.4 0.3-0.2 0.6C271.5 31.9 280.6 31.9 282.2 31.7zM257.4 20.2c-0.1 0.3-0.1 0.5-0.1 0.6 0 3.4 0 6.8 0 10.2 0 0.2 0.1 0.5 0.2 0.8 0.3 0 0.6 0.1 0.9 0.1 3.4 0 6.8 0 10.2 0 0.2 0 0.4 0 0.6-0.1 0.1 0 0.2-0.2 0.4-0.4 -0.5-0.2-1-0.3-1.4-0.5 -1.9-0.6-3.2-2.3-3.2-4.3 0-1.8 1.2-3.5 3-4.2 0.5-0.2 1-0.3 1.6-0.5 0.1-0.6 0.2-1.2-0.1-1.7 -0.2-0.1-0.3-0.2-0.5-0.2 -3.6 0-7.2 0-10.9 0C257.9 20 257.7 20.1 257.4 20.2z"/><path d="M548.6 17.6c0.7-0.4 1.3-0.3 2-0.3 6.8 0 13.6 0 20.3 0 5.1 0 10.2 0 15.3 0 0.6 0 1.2 0 1.8 0.1 0.2 0.9 0.2 1.7 0 2.5 -0.1 0.5-0.2 1.1-0.2 1.6 0 8.5 0 16.9 0 25.4 0 0.4 0 0.8 0.1 1.2 0.6 0.3 1.2 0.5 1.8 0.8 2.4 1.5 3 4.6 1.1 6.7 -0.4 0.5-1 0.8-1.5 1.2 -0.4 0.3-0.9 0.4-1.4 0.6 -0.1 2.3-0.1 4.7-0.1 7 0 2.3 0 4.6 0 6.8 0 2.3 0 4.7 0 7 0 2.3 0 4.7 0 7 0 2.3 0 4.6 0 6.8 0 2.3 0.1 4.6-0.1 7.1 -0.5 0-0.9 0.1-1.3 0.1 -7 0-14 0-21 0 -4.8 0-9.6 0-14.5 0 -0.6 0-1.2 0-1.7 0 -0.5-0.6-0.3-1.1-0.3-1.7 0-4.2 0-8.3 0-12.5 0-21 0-42 0-62.9 0-0.8 0-1.6-0.3-2.4C548.4 19.1 548.6 18.3 548.6 17.6zM561.6 45.2c0.1-0.3 0.1-0.5 0.1-0.7 0-3.7 0-7.5 0-11.2 0-0.3-0.1-0.5-0.2-0.7 -1.4-0.3-4.4-0.4-10.6-0.2 -0.5 0-1-0.1-1.5 0.3 0 0.2-0.1 0.4-0.1 0.6 0 3.8 0 7.6 0 11.4 0 0.2 0.1 0.4 0.2 0.7 0.4 0.1 0.8 0.1 1.3 0.1C556.2 45.6 560.2 45.5 561.6 45.2zM574.4 45.2c0-0.4 0.1-0.7 0.1-1 0-3.6 0-7.1 0-10.7 0-0.3-0.1-0.6-0.2-1 -0.3-0.1-0.6-0.2-0.8-0.2 -3.5 0-7 0-10.5 0 -0.2 0-0.4 0.1-0.6 0.2 -0.1 0.2-0.2 0.3-0.2 0.5 0 3.8 0 7.6 0 11.3 0 0.3 0.1 0.5 0.1 0.8 0.3 0.1 0.6 0.2 0.9 0.2C566.1 45.6 573.1 45.4 574.4 45.2zM587.1 45.2c0.1-0.3 0.2-0.5 0.2-0.7 0-3.8 0-7.6 0-11.4 0-0.2-0.1-0.4-0.2-0.7 -0.3-0.1-0.6-0.2-0.9-0.2 -3.4 0-6.8 0-10.2 0 -0.3 0-0.6 0.2-0.9 0.2 -0.1 0.3-0.1 0.6-0.1 0.9 0 3.6 0 7.3 0 10.9 0 0.3 0.1 0.6 0.2 0.9 1.3 0.3 6.9 0.4 10.9 0.2C586.4 45.4 586.7 45.3 587.1 45.2zM575 86c-0.1 0.4-0.1 0.8-0.1 1.2 0 3.4 0 6.8 0 10.2 0 0.3 0 0.5 0.1 0.8 0.1 0.4 0.3 0.6 0.7 0.6 0.2 0 0.3 0 0.5 0 3.4 0 6.8 0 10.2 0 0.3 0 0.6-0.2 0.9-0.2 0.1-0.2 0.1-0.4 0.1-0.6 0-3.8 0-7.6 0-11.4 0-0.2-0.1-0.5-0.2-0.7C585.7 85.7 576.6 85.7 575 86zM562.3 85.9c-0.1 0.3-0.2 0.5-0.2 0.8 0 3.8 0 7.6 0 11.4 0 0.2 0.1 0.4 0.2 0.7 0.4 0.1 0.7 0.1 1 0.1 3.4 0 6.7 0 10.1 0 0.3 0 0.6-0.1 1-0.2 0.1-0.4 0.1-0.7 0.1-1 0-3.6 0-7.2 0-10.7 0-0.3-0.1-0.6-0.2-0.9 -0.2-0.1-0.4-0.2-0.5-0.2 -3.5 0-6.9 0-10.4 0C563.1 85.8 562.7 85.9 562.3 85.9zM549.6 85.9c-0.1 0.2-0.2 0.4-0.2 0.5 0 3.8 0 7.7 0 11.5 0 0.2 0.1 0.4 0.1 0.6 0.5 0.3 1.1 0.3 1.6 0.3 2.9 0 5.8 0 8.8 0 0.4 0 0.8 0 1.1 0 0.5 0 0.7-0.3 0.7-0.7 0-0.2 0-0.4 0-0.6 0-3.4 0-6.8 0-10.2 0-0.4-0.1-0.8-0.2-1.2C560.3 85.8 551.4 85.7 549.6 85.9zM575 72.4c-0.1 0.4-0.2 0.7-0.2 0.9 0 3.6 0 7.1 0 10.7 0 0.4 0.1 0.7 0.2 1 1.4 0.3 5.8 0.4 10.9 0.2 0.4 0 0.7-0.1 1.1-0.2 0.1-0.2 0.2-0.4 0.2-0.5 0-3.8 0-7.7 0-11.5 0-0.2-0.1-0.4-0.1-0.6 -0.2-0.1-0.3-0.2-0.5-0.2 -3.6 0-7.1 0-10.7 0C575.7 72.3 575.4 72.4 575 72.4zM549.5 46.1c0 0.3-0.1 0.6-0.1 0.9 0 3.6 0 7.1 0 10.7 0 0.3 0.1 0.6 0.2 1 0.3 0.1 0.6 0.2 0.8 0.2 3.5 0 6.9 0 10.4 0 0.3 0 0.6-0.2 0.9-0.3 0-0.3 0.1-0.5 0.1-0.7 0-3.7 0-7.4 0-11 0-0.3-0.1-0.5-0.2-0.8 -0.3-0.1-0.5-0.1-0.7-0.1 -3.6 0-7.3 0-10.9 0C549.9 45.9 549.7 46 549.5 46.1zM562.3 45.8c-0.1 0.5-0.2 0.7-0.2 1 0 3.7 0 7.4 0 11 0 0.3 0.1 0.5 0.2 0.8 0.3 0.1 0.5 0.2 0.7 0.2 3.6 0 7.2 0 10.9 0 0.1 0 0.3-0.1 0.4-0.2 0.3-1.2 0.4-4.3 0.2-11.3 0-0.4-0.1-0.8-0.1-1.3 -0.3-0.1-0.6-0.1-0.9-0.1C569.8 45.8 566.2 45.8 562.3 45.8zM549.4 72.5c0 0.6-0.1 1.1-0.1 1.5 0 3.2 0 6.4 0 9.6 0 0.3 0 0.5 0 0.8 0.1 0.7 0.2 0.9 1 1 0.1 0 0.2 0 0.3 0 3.2 0 6.5 0 9.7 0 0.4 0 0.7-0.1 1.1-0.2 0.1-0.3 0.2-0.5 0.2-0.7 0-0.4 0-0.8 0-1.1 0-3.1 0-6.3 0-9.4 0-0.5 0.1-1.1-0.4-1.6 -0.2 0-0.5-0.1-0.7-0.1 -3.5 0-6.9 0-10.4 0C550 72.3 549.8 72.4 549.4 72.5zM574.4 72.5c-0.3-0.1-0.5-0.2-0.7-0.2 -3.6 0-7.1 0-10.7 0 -0.2 0-0.4 0.1-0.6 0.2 -0.1 0.2-0.2 0.4-0.2 0.6 0 3.8 0 7.7 0 11.5 0 0.1 0.1 0.3 0.2 0.5 0.4 0 0.8 0.1 1.2 0.1 3.1 0 6.3 0 9.4 0 0.3 0 0.5 0 0.8 0 0.4-0.1 0.6-0.3 0.6-0.7 0-0.3 0-0.6 0-1 0-3.3 0-6.6 0-9.9C574.5 73.4 574.4 73 574.4 72.5zM574.3 59.5c-0.3-0.1-0.6-0.2-1-0.2 -3.4 0-6.8 0-10.2 0 -0.3 0-0.6 0.1-0.9 0.2 0 0.3-0.1 0.6-0.1 0.9 0 3.5 0 6.9 0 10.4 0 0.3 0.1 0.6 0.2 1 1.4 0.2 2.8 0.1 4.1 0.1 1.3 0 2.6 0 3.9 0 1.3 0 2.7 0.2 4-0.2 0.1-0.3 0.2-0.5 0.2-0.7 0-3.6 0-7.2 0-10.9C574.5 59.9 574.4 59.7 574.3 59.5zM575 59.5c-0.1 0.2-0.2 0.4-0.2 0.6 0 3.6 0 7.1 0 10.7 0 0.3 0.2 0.6 0.3 0.9 0.3 0 0.5 0.1 0.7 0.1 3.5 0 6.9 0 10.4 0 0.3 0 0.6-0.1 0.9-0.2 0.2-1.6 0.2-10.8 0-12.1 -0.2-0.1-0.4-0.2-0.6-0.2 -3.6 0-7.3 0-10.9 0C575.4 59.3 575.2 59.4 575 59.5zM549.5 59.5c-0.1 0.3-0.1 0.4-0.1 0.5 0 3.7 0 7.4 0 11 0 0.2 0.1 0.5 0.2 0.8 0.3 0 0.6 0.1 0.9 0.1 3.4 0 6.8 0 10.2 0 0.3 0 0.6-0.1 0.9-0.2 0.1-0.4 0.1-0.7 0.1-1 0-3.4 0-6.8 0-10.2 0-0.3-0.1-0.6-0.2-0.9 -0.3-0.1-0.6-0.1-0.9-0.1 -3.5 0-7 0-10.6 0C549.9 59.3 549.7 59.4 549.5 59.5zM575.1 20.2c-0.1 0.3-0.2 0.6-0.2 0.9 0 3.2 0 6.5 0 9.7 0 0.3 0.2 0.6 0.2 0.9 0.3 0 0.5 0.1 0.7 0.1 3.5 0 7 0 10.6 0 0.3 0 0.5-0.1 0.8-0.2 0.2-1 0.1-2 0.1-2.9 0-0.9 0-1.8 0-2.8 0-1 0-1.9 0-2.9 0-1 0.1-1.9-0.2-2.9 -0.3-0.1-0.5-0.1-0.7-0.1 -3.6 0-7.3 0-10.9 0C575.4 20.1 575.3 20.1 575.1 20.2zM562.3 20.2c0 0.2-0.1 0.4-0.1 0.6 0 3.5 0 6.9 0 10.4 0 0.1 0.1 0.3 0.2 0.5 0.9 0.2 1.9 0.1 2.9 0.1 1 0 2.1 0 3.1 0 1 0 2 0 2.9 0 1 0 2 0.1 3.1-0.1 0.3-1 0.1-2 0.2-3 0-0.9 0-1.8 0-2.8 0-1 0-2 0-2.9 0-1 0.1-1.9-0.1-2.9 -0.3-0.1-0.5-0.2-0.7-0.2 -3.6 0-7.3 0-10.9 0C562.6 20.1 562.5 20.2 562.3 20.2zM549.6 31.8c1 0 2 0 3 0 1 0 2.1 0 3.1 0 1 0 1.9 0 2.9 0 1 0 2 0.1 3.1-0.1 0.1-0.3 0.1-0.5 0.1-0.7 0-3.5 0-6.9 0-10.4 0-0.1-0.1-0.3-0.2-0.5 -0.2 0-0.4-0.1-0.6-0.1 -3.6 0-7.1 0-10.7 0 -0.2 0-0.5 0.1-0.7 0.2C549.3 21.9 549.3 30.4 549.6 31.8zM575.2 45.9c-0.4 0.7-0.3 1.3-0.3 1.8 0 3.1 0 6.3 0 9.4 0 0.2 0 0.4 0 0.6 0.1 0.9 0.2 1.1 1 1.1 0.2 0 0.3 0 0.5 0 3.1 0 6.3 0 9.4 0 0.3 0 0.7 0 1-0.1 0.3-0.1 0.5-0.3 0.5-0.6 0-0.3-0.1-0.5-0.1-0.8 -0.5-0.1-0.9-0.2-1.3-0.4 -1.9-0.7-3.1-2.4-3.1-4.3 0-1.9 1.3-3.6 3.2-4.3 0.4-0.1 0.8-0.3 1.2-0.4 0.1-0.7 0.2-1.4-0.2-2.2C583.1 45.8 579.1 45.8 575.2 45.9z"/><path d="M486 99.2c-13 0.1-25.7 0-38.5 0 -0.4-0.6-0.2-1.2-0.2-1.7 0-4.6 0-9.2 0-13.8 0-17.2 0-34.3 0-51.5 0-3.5 0-6.9 0-10.4 0-0.6 0-1.3-0.3-1.9 -0.3-0.7-0.2-1.5 0-2.2 0.6-0.3 1.3-0.2 1.9-0.2 6.7 0 13.3 0 20 0 5.1 0 10.2 0 15.3 0 0.6 0 1.3 0 1.9 0 0.9 1.4-0.3 2.8 0.1 4.2 0.5 0.2 1.1 0.4 1.6 0.7 2.6 1.4 3.2 4.7 1.2 6.9 -0.4 0.5-1 0.8-1.6 1.1 -0.4 0.2-0.8 0.3-1.3 0.5 0 0.4-0.1 0.7-0.1 1.1 0 2 0 4 0 6 0 9.9 0 19.7 0 29.6 0 9.8 0 19.6 0 29.4C486.1 97.7 486 98.3 486 99.2zM447.9 32.4c-0.1 0.5-0.2 0.9-0.2 1.2 0 0.8 0 1.5 0 2.3 0 2.6 0 5.2 0 7.8 0 0.5-0.1 1.1 0.4 1.5 0.1 0 0.3 0.1 0.4 0.1 3.6 0 7.1 0 10.7 0 0.2 0 0.5-0.1 0.7-0.2 0-0.3 0.1-0.5 0.1-0.7 0-3.7 0-7.5 0-11.2 0-0.3-0.1-0.5-0.2-0.7 -0.2-0.1-0.4-0.2-0.5-0.2 -3.5 0-6.9 0-10.4 0C448.7 32.3 448.3 32.4 447.9 32.4zM485.5 45.2c0.1-0.3 0.2-0.5 0.2-0.7 0-3.8 0-7.6 0-11.4 0-0.2-0.1-0.4-0.2-0.7 -0.3-0.1-0.5-0.2-0.8-0.2 -3.5 0-6.9 0-10.4 0 -0.3 0-0.6 0.2-0.9 0.2 -0.1 0.2-0.1 0.4-0.1 0.6 0 3.8 0 7.7 0 11.5 0 0.2 0.1 0.4 0.2 0.5 1.3 0.3 7.9 0.4 11.1 0.2C484.9 45.4 485.2 45.3 485.5 45.2zM460.7 32.5c-0.1 0.4-0.1 0.7-0.1 1.1 0 3.6 0 7.1 0 10.7 0 0.3 0.1 0.6 0.2 0.9 1.4 0.4 2.7 0.1 4.1 0.2 1.3 0 2.6 0 3.9 0 1.3 0 2.7 0.1 4-0.1 0.1-0.3 0.2-0.6 0.2-0.9 0-3.7 0-7.4 0-11 0-0.3-0.2-0.6-0.2-0.9 -0.3-0.1-0.6-0.1-0.9-0.1 -3.5 0-6.9 0-10.4 0C461.2 32.3 461 32.4 460.7 32.5zM473.4 86c-0.2 2-0.2 11.4 0.1 12.6 0.2 0.1 0.5 0.2 0.7 0.2 3.5 0 7 0 10.5 0 0.3 0 0.5-0.1 0.7-0.2 0.3-1.3 0.4-7.3 0.2-11.6 0-0.4-0.1-0.7-0.2-1.1 -0.3-0.1-0.5-0.1-0.7-0.1 -3.6 0-7.2 0-10.9 0C473.8 85.8 473.6 85.9 473.4 86zM459.9 98.7c0.1-0.3 0.1-0.5 0.1-0.7 0-3.8 0-7.6 0-11.4 0-0.2-0.1-0.5-0.2-0.7 -1.7-0.2-10.7-0.2-12 0.1 -0.1 0.2-0.2 0.5-0.2 0.7 0 3.7 0 7.4 0 11.1 0 0.8 0.2 1 1 1 0.2 0 0.3 0 0.5 0 3.1 0 6.3 0 9.4 0C459 98.8 459.4 98.7 459.9 98.7zM485.5 46c-0.4-0.1-0.6-0.1-0.8-0.1 -3.5 0-6.9 0-10.4 0 -0.3 0-0.6 0.1-0.9 0.2 -0.2 1.2-0.3 9.2-0.1 11.8 0 0.3 0.1 0.5 0.1 0.8 0.4 0.1 0.7 0.2 1 0.2 3.4 0 6.8 0 10.2 0 0.3 0 0.6-0.2 0.9-0.2 0.2-1.3 0.3-8.2 0.2-11.6C485.7 46.7 485.6 46.4 485.5 46zM460.7 98.7c0.4 0.1 0.9 0.1 1.3 0.2 5.3 0.2 9.5 0.1 10.8-0.2 0.1-0.2 0.2-0.5 0.2-0.7 0-3.7 0-7.4 0-11.1 0-0.3-0.2-0.6-0.2-0.9 -0.2-0.1-0.4-0.1-0.6-0.1 -3.6 0-7.2 0-10.7 0 -0.2 0-0.5 0.1-0.7 0.2 -0.2 1.3-0.3 8.3-0.2 11.6C460.5 97.9 460.6 98.3 460.7 98.7zM459.9 58.7c0.1-0.4 0.1-0.6 0.1-0.8 0-3.7 0-7.4 0-11 0-0.3-0.1-0.6-0.2-1 -3.7 0-7.4 0-11.1 0 -0.3 0-0.5 0.1-0.8 0.1 -0.1 0.3-0.2 0.6-0.2 0.8 0 3.7 0 7.4 0 11 0 0.3 0.2 0.6 0.2 0.9 1.3 0.2 7.9 0.3 10.9 0.1C459.2 58.8 459.5 58.7 459.9 58.7zM472.7 46c-0.3-0.1-0.5-0.1-0.7-0.1 -3.5 0-7 0-10.5 0 -0.3 0-0.5 0.1-0.8 0.2 -0.1 0.4-0.1 0.7-0.1 1 0 3.6 0 7.1 0 10.7 0 0.3 0.1 0.6 0.2 0.9 0.3 0.1 0.6 0.1 0.9 0.1 3.4 0 6.8 0 10.2 0 0.3 0 0.6-0.1 1-0.2 0.1-0.4 0.2-0.7 0.2-1 0-3.5 0-7 0-10.5C472.9 46.7 472.8 46.3 472.7 46zM459.9 85.1c0.2-1.5 0.1-2.9 0.1-4.3 0-1.4 0-2.8 0-4.2 0-1.4 0.2-2.8-0.2-4.2 -0.4-0.1-0.7-0.1-1-0.1 -3.4 0-6.7 0-10.1 0 -0.3 0-0.6 0.1-0.9 0.2 -0.3 1.3-0.4 5.7-0.2 11.4 0 0.4 0.1 0.8 0.2 1.3 0.4 0.1 0.7 0.2 1 0.2C451.9 85.5 458.5 85.4 459.9 85.1zM472.7 72.4c-0.5 0-1-0.1-1.5-0.1 -1.6 0-3.1 0-4.7 0 -1.6 0-3.1 0-4.7 0 -0.4 0-0.9-0.1-1.2 0.4 0 0.1-0.1 0.3-0.1 0.4 0 3.7 0 7.5 0 11.2 0 0.3 0.1 0.5 0.2 0.8 0.4 0.1 0.7 0.2 1 0.2 3.4 0 6.7 0 10.1 0 0.3 0 0.6-0.1 1-0.2 0.1-0.5 0.1-0.9 0.2-1.3C473 79.5 473 73.9 472.7 72.4zM473.3 72.5c-0.1 1.4 0 2.8-0.1 4.2 0 1.4 0 2.8 0 4.2 0 1.4-0.2 2.8 0.2 4.2 0.3 0.1 0.5 0.2 0.7 0.2 3.6 0 7.1 0 10.7 0 0.2 0 0.4-0.1 0.6-0.2 0.1-0.3 0.2-0.5 0.2-0.8 0-3.7 0-7.5 0-11.2 0-0.2-0.1-0.5-0.2-0.7 -1.2-0.2-8.4-0.3-11.1-0.2C474 72.3 473.7 72.4 473.3 72.5zM473.4 71.7c1 0.2 2 0.1 3 0.1 1 0 2.1 0 3.1 0 1 0 1.9 0 2.9 0 1 0 2 0.1 3-0.1 0.1-0.3 0.2-0.5 0.2-0.7 0-3.6 0-7.3 0-10.9 0-0.2-0.1-0.4-0.2-0.7 -0.3-0.1-0.6-0.2-1-0.2 -3.4 0-6.8 0-10.2 0 -0.3 0-0.6 0.1-0.9 0.2C473.2 61 473.2 70.2 473.4 71.7zM459.9 59.5c-1.4-0.3-5.7-0.4-10.8-0.2 -0.4 0-0.8 0.1-1.3 0.2 -0.1 0.3-0.1 0.6-0.1 0.9 0 3.5 0 7 0 10.5 0 0.3 0.2 0.6 0.2 0.9 0.2 0 0.4 0.1 0.6 0.1 3.6 0 7.1 0 10.7 0 0.3 0 0.5-0.1 0.7-0.2C460.1 70.2 460.1 61 459.9 59.5zM472.7 59.4c-0.4-0.1-0.6-0.1-0.8-0.1 -3.5 0-6.9 0-10.4 0 -0.3 0-0.6 0.1-0.9 0.2 -0.1 0.3-0.1 0.5-0.1 0.7 0 3.6 0 7.1 0 10.7 0 0.3 0.1 0.5 0.2 0.8 1.4 0.2 2.7 0.1 4.1 0.1 1.3 0 2.6 0 3.9 0 1.3 0 2.7 0.2 4-0.1 0.1-0.3 0.2-0.5 0.2-0.7 0-3.6 0-7.1 0-10.7C472.9 60.1 472.8 59.8 472.7 59.4zM447.8 20.2c-0.1 0.3-0.2 0.6-0.2 0.9 0 3.2 0 6.5 0 9.7 0 0.3 0.1 0.6 0.2 0.9 0.3 0 0.6 0.1 0.9 0.1 3.4 0 6.8 0 10.2 0 0.3 0 0.6-0.1 1-0.2 0-1 0-2 0-3 0-0.9 0-1.8 0-2.8 0-1 0-1.9 0-2.9 0-1 0.1-1.9-0.1-2.9 -0.3-0.1-0.5-0.1-0.7-0.1 -3.6 0-7.2 0-10.9 0C448.2 20.1 448.1 20.1 447.8 20.2zM460.7 20.2c-0.1 0.2-0.1 0.3-0.1 0.4 0 3.5 0 6.9 0 10.4 0 0.2 0.1 0.5 0.2 0.7 0.2 0.1 0.4 0.1 0.6 0.1 3.6 0 7.2 0 10.9 0 0.2 0 0.4-0.1 0.5-0.2 0.3-1.4 0.4-5.2 0.2-10.3 0-0.4-0.1-0.8-0.1-1.3 -0.3-0.1-0.5-0.1-0.7-0.1 -3.6 0-7.2 0-10.9 0C461 20.1 460.9 20.1 460.7 20.2zM473.5 31.8c0.3 0 0.5 0.1 0.7 0.1 3.5 0 6.9 0 10.4 0 0.2 0 0.5 0 0.6-0.1 0.2-0.1 0.3-0.3 0.3-0.5 0-0.1-0.1-0.3-0.2-0.4 -0.4-0.2-0.8-0.2-1.2-0.4 -1.8-0.7-3-2.3-3-4.2 0-1.9 1.2-3.5 3-4.2 0.4-0.2 0.9-0.3 1.4-0.4 0.1-0.5 0.2-1-0.1-1.5 -0.2 0-0.4-0.1-0.6-0.1 -3.6 0-7.1 0-10.7 0 -0.2 0-0.5 0.1-0.7 0.2C473.2 21.9 473.2 30.4 473.5 31.8z"/><path d="M307.3 47c-0.7 0.1-1.2 0.1-1.6 0.1 -0.2 0-0.4-0.2-0.5-0.3 -0.1-0.2-0.1-0.6 0-0.7 1-0.8 1.8-1.9 3.2-2 1.7-0.1 3.5-0.1 5.2-0.2 0.5 0 0.8 0.1 1.2 0.4 0.8 0.6 1.7 1.1 2.5 1.8 0.5 0.4 1 1 1.3 1.6 2 3.4 2.9 7.1 2.7 11 -0.1 1.6-0.4 3.2-0.7 4.8 -0.5 1.9-1.6 3.5-2.7 5.1 -0.7 1.1-1.6 1.9-2.7 2.4 -1 0.5-2.1 0.8-3.3 0.9 -0.7 0-1.4 0.1-2.1 0.3 -1 0.3-2 0.3-3.1 0.3 -0.9 0-1.2-0.4-1.5-1.6 1.1-0.3 2.5 0.3 3.3-0.9 0-0.1 0.1-0.2 0.1-0.3 0-3.7 0.2-7.4-0.3-11 -0.2-1.3-0.2-2.6-0.2-3.9 0-1.7-0.1-3.4-0.5-5 -0.1-0.5-0.1-1-0.2-1.4C307.4 48 307.3 47.6 307.3 47zM317.1 58.2c0 0 0.1 0 0.1 0 -0.1-0.8-0.3-1.6-0.3-2.4 0-1.8-0.4-3.6-0.7-5.3 -0.2-1.2-0.6-2.3-1.2-3.3 -0.6-0.9-1.3-1.4-2.4-1.4 -0.8 0-1.1 0.2-1.2 1 -0.1 0.9-0.1 1.8 0 2.8 0.1 4.5 0.5 9.1 0.4 13.6 0 0.1 0 0.1 0 0.2 0.1 0.4 0.1 0.9 0.2 1.3 0.3 1.4 0.6 2.7 0.3 4.2 -0.1 0.6 0.3 1 0.9 0.8 1.4-0.5 2.6-1.2 3.1-2.6 0.3-0.8 0.5-1.7 0.6-2.5C316.9 62.3 316.9 60.2 317.1 58.2z"/><path d="M711.5 70.6c0.6-0.1 1-0.2 1.6-0.3 0.1-0.3 0.3-0.7 0.3-1 0.1-0.4 0.1-0.9 0.1-1.3 0.2-5.2 0.4-10.4 0.3-15.6 0-1.7 0-3.4 0-5 0-0.5-0.1-1-0.1-1.4 -0.8-0.5-1.9-0.1-2.2-1.3 0.3-0.2 0.5-0.4 0.8-0.5 0.6-0.1 1.2-0.2 1.8-0.2 1.5 0 3 0.1 4.5 0.2 0.5 0 1.1 0.2 1.6 0.3 0.8 0.2 1.3 0.7 1.7 1.4 0.7 1.2 0.9 2.5 0.9 3.9 0 1.1-0.5 2.1-1 3 -0.2 0.4-0.5 0.8-0.9 1.3 0.3 0.2 0.6 0.5 0.9 0.6 1 0.4 1.7 1.2 2.1 2.1 0.2 0.5 0.5 1 0.6 1.5 0.8 3.5 1 7.1-0.7 10.4 -0.5 0.9-1.1 1.8-1.8 2.5 -0.8 0.8-1.8 1.2-2.9 1.3 -1.5 0.1-2.9 0.1-4.4-0.2 -0.7-0.2-1.5-0.2-2.2-0.3C711.7 72 711.6 71.8 711.5 70.6zM716.9 70.3c2.2 0.2 3.7-0.6 4.4-2.3 0.4-1.1 0.7-2.4 1-3.6 0.1-0.4 0.1-0.8 0.1-1.1 -0.2-2.1-0.1-4.3-0.8-6.4 -0.1-0.3-0.2-0.8-0.5-1 -1.1-0.9-2.3-1.5-3.8-1.4 -0.6 0.6-0.6 1.4-0.6 2 0 4.2 0 8.3 0 12.5C716.8 69.5 716.9 69.9 716.9 70.3zM716.8 48.7c0 0 0 0-0.1 0 0 0.6 0 1.3 0.1 1.9 0.1 0.5 0.2 0.9 0.4 1.4 0.1 0.3 0.4 0.4 0.7 0.2 0.3-0.2 0.5-0.4 0.7-0.6 0.9-1.2 1.3-2.7 1.3-4.2 0-0.9-0.4-1.3-1.3-1.5 -0.1 0-0.2 0-0.3 0 -1-0.1-1.4 0.1-1.5 1.1C716.8 47.5 716.8 48.1 716.8 48.7z"/><path d="M823.6 59.4c-1.3-0.3-2.7-0.6-4-0.7 -0.8-0.1-1.1 0.2-1.3 0.9 0 0.1-0.1 0.2-0.1 0.3 -0.3 3.2-1 6.3-0.8 9.5 0 0.3 0.1 0.5 0.1 0.9 0.4 0.1 0.9 0.2 1.2 0.4 0.2 0.1 0.4 0.3 0.5 0.6 0.1 0.3 0 0.7-0.3 0.8 -0.4 0.2-0.9 0.4-1.4 0.4 -1.1 0-2.3 0-3.4 0 -0.6 0-0.9-0.5-1.3-0.9 0.3-1.1 1.3-1 2.1-1.5 0.1-0.8 0.3-1.7 0.4-2.6 0.5-4 1-8.1 1.5-12.1 0.2-1.4 0.5-2.8 1.1-4.1 0.2-0.5 0.4-1 0.6-1.5 0.6-1.7 1.5-3.1 2.5-4.6 0.1-0.2 0.3-0.3 0.4-0.5 0.9-0.8 2-0.8 2.9 0 0.7 0.7 1.2 1.5 1.5 2.5 0.8 2.3 1.3 4.6 1.5 7 0.3 4.4 0.8 8.7 1.2 13.1 0 0.4 0 0.8 0.1 1.1 0 1.3-0.1 2.6 0.4 3.9 -0.3 0.1-0.4 0.3-0.6 0.3 -1.6 0.1-3.1 0.1-4.7 0.2 -0.2 0-0.3 0-0.5 0 -0.3 0-0.5-0.3-0.4-0.6 0.3-0.5 0.5-1.1 0.9-1.5 0.4-0.4 0.6-0.7 0.6-1.3 -0.1-3 0-6.1-0.5-9.1C823.9 60 823.7 59.7 823.6 59.4zM823.5 57.4c0.1-0.1 0.1-0.2 0.1-0.2 0.3-3.1 0.1-6.2-1-9.2 -0.1-0.1-0.1-0.3-0.2-0.4 -0.2-0.3-0.6-0.4-0.8-0.1 -0.3 0.4-0.5 0.8-0.7 1.3 -0.5 1.6-1 3.2-1.4 4.8 -0.3 1.1-0.4 2.2-0.7 3.2C820.1 57.4 821.7 57.6 823.5 57.4z"/><path d="M619.4 54.3c0.4 0.2 0.7 0.5 1 0.6 0.8 0.3 1.2 0.8 1.6 1.5 0.7 1.1 1.2 2.3 1.3 3.7 0.1 1.3 0.2 2.6 0.2 3.9 0 2.3-0.8 4.5-2.2 6.4 -1.1 1.5-2.6 2.4-4.5 2.4 -1.3 0-2.6 0-3.9-0.3 -0.6-0.2-1.3-0.1-1.9-0.2 -0.9-0.1-1-0.3-1-1.5 0.5-0.1 1-0.2 1.6-0.4 0.1-0.7 0.2-1.3 0.3-1.9 0.1-1.1 0-2.2 0.1-3.2 0.1-1.4 0.1-2.8 0.2-4.2 0-0.4 0.1-0.9 0.1-1.3 0-4.1 0-8.1 0-12.2 0-0.5 0-1-0.1-1.5 -0.5-0.1-0.9-0.2-1.3-0.3 -0.2-0.1-0.5-0.2-0.7-0.4 -0.3-0.2-0.2-0.7 0.1-0.8 0.4-0.1 0.8-0.2 1.2-0.3 2-0.2 4-0.1 6 0.2 2.2 0.3 3.1 1.4 3.6 3.6 0.4 2.1 0 4-1.4 5.6 -0.1 0.1-0.2 0.3-0.2 0.4C619.4 54 619.4 54 619.4 54.3zM615.1 70.2c1.1 0.4 2 0.3 2.7-0.2 0.9-0.5 1.7-1.2 2-2.3 0.2-0.8 0.4-1.7 0.8-2.5 0.2-0.5 0.3-1.1 0.2-1.6 -0.1-2.3-0.1-4.6-0.8-6.9 -0.1-0.2-0.2-0.5-0.4-0.7 -1-0.9-2.2-1.4-3.5-1.5 -0.4 0-0.7 0.2-0.7 0.5 -0.1 0.6-0.2 1.3-0.2 1.9 0 3.9 0 7.8 0 11.7C615.1 69.1 615.1 69.6 615.1 70.2zM615.1 48.7c0 0 0 0 0 0 0 0.5-0.1 1 0 1.5 0.1 0.6 0.2 1.2 0.4 1.7 0.1 0.4 0.6 0.5 0.9 0.2 0.2-0.2 0.5-0.4 0.7-0.7 0.8-1.1 1.1-2.3 1.2-3.6 0.1-1.4-0.3-1.9-1.7-2 -1.1-0.1-1.5 0.2-1.5 1.3C615.1 47.6 615.1 48.2 615.1 48.7z"/><path d="M916.6 70.1c0.1-0.4 0.1-0.7 0.2-1 0.6-4.7 1.2-9.3 1.8-14 0.1-0.6 0.1-1.2 0.3-1.8 0.9-2.7 1.8-5.4 3.4-7.7 0.2-0.3 0.4-0.5 0.6-0.8 1-1 2.1-1 3.1-0.1 0.8 0.8 1.3 1.8 1.7 2.9 1 2.7 1.2 5.5 1.5 8.3 0.3 3.6 0.6 7.1 0.9 10.7 0 0.2 0 0.4 0.1 0.6 0.1 1.7-0.2 3.3 0.4 5 -0.3 0.1-0.5 0.2-0.7 0.2 -1.5 0.1-2.9 0.1-4.4 0.2 -0.2 0-0.4 0-0.6 0 -0.4 0-0.6-0.4-0.4-0.7 0.2-0.4 0.5-0.8 0.8-1.2 0.2-0.3 0.5-0.4 0.8-0.7 0-3.5 0.1-7.1-0.7-10.6 -0.9-0.3-3.5-0.8-4.2-0.8 -0.7 0-1 0.2-1.2 0.9 0 0.1-0.1 0.2-0.1 0.3 -0.2 3-1 6-0.8 9 0 0.4 0 0.9 0.1 1.4 0.4 0.1 0.7 0.2 1 0.3 0.5 0.2 0.7 0.3 0.7 0.8 0 0.4-0.2 0.8-0.6 0.9 -0.5 0.1-0.9 0.2-1.4 0.3 -0.6 0-1.2-0.1-1.8-0.1 -0.5 0-1.1 0-1.7 0 -0.3-0.3-0.6-0.6-0.9-0.9C914.9 70.6 915.8 70.6 916.6 70.1zM925.1 57.5c0.2-0.3 0.2-0.4 0.2-0.5 0.2-3.1 0-6.1-1-9 -0.1-0.2-0.2-0.4-0.3-0.6 -0.1-0.2-0.5-0.3-0.7-0.1 -0.5 0.3-0.6 0.9-0.8 1.4 -0.8 2.5-1.5 5-2 7.5 0 0.2 0 0.4 0.1 0.7C922.1 57.4 923.5 57.7 925.1 57.5z"/><path d="M419.3 46.9c-1.5-0.7-3-0.7-4.6-0.3 -0.4 0.1-0.7 0.5-0.9 0.9 -0.5 0.9-0.9 1.7-1.4 2.6 -0.7 1.3-1 2.6-1.1 4 -0.1 2.4-0.2 4.9-0.1 7.3 0.1 2.5 0.9 4.9 2.1 7.1 0.2 0.4 0.5 0.8 0.8 1.2 1.4 1.7 3 1.6 4.8 0.6 0.2-0.1 0.4-0.4 0.4-0.6 0.1-0.3 0.1-0.6 0.1-1 0-0.4 0-0.9 0.1-1.3 0.2-1.5 0.6-1.6 1.9-0.7 0 0 0.1 0.1 0.2 0.3 0 1 0 2.1 0 3.3 0 0.8-0.4 1.3-1 1.7 -0.6 0.4-1.3 0.6-2 0.6 -2 0.1-4-0.1-6-0.6 -1.5-0.4-4-2.7-4.4-4.1 -0.7-2.7-1.4-5.3-1.7-8.1 0-0.6-0.1-1.3 0-1.9 0.4-2.5 0.7-5 1.4-7.5 1-3.4 3.3-5.7 6.9-6.3 1.8-0.3 3.5 0.2 4.9 1.2 0.9 0.6 1.4 1.5 1.2 2.7 -0.1 0.4-0.1 0.9-0.2 1.3 0 0.2-0.3 0.3-0.5 0.3 -0.2 0-0.4-0.2-0.5-0.3 -0.1-0.3-0.2-0.7-0.3-1.1C419.4 47.7 419.4 47.4 419.3 46.9z"/><path d="M512.8 57.7c0 0.6 0 1.2 0 1.8 -0.1 2.9 0.6 5.6 1.8 8.2 0.3 0.8 0.8 1.5 1.4 2.2 1.4 1.6 3 1.5 4.7 0.4 0.3-0.2 0.4-0.6 0.5-1 0.1-0.6 0-1.2 0.1-1.8 0-0.4 0.1-0.7 0.2-1.1 0-0.1 0.2-0.3 0.4-0.3 0.5-0.1 1.4 0.4 1.4 0.9 0 1.2 0.1 2.5 0 3.7 0 0.4-0.4 0.8-0.7 1 -0.6 0.5-1.3 0.7-2.1 0.8 -2.1 0.2-4.1 0-6.1-0.6 -1.3-0.3-2.2-1.4-3.1-2.3 -0.7-0.6-1.2-1.4-1.4-2.3 -0.4-2.1-0.9-4.1-1.3-6.2 -0.3-1.6-0.3-3.1 0-4.7 0.4-2 0.6-4.1 1.2-6 1-3.4 3.2-5.6 6.7-6.4 1.9-0.4 3.6 0.2 5.1 1.1 0.9 0.6 1.5 1.5 1.2 2.8 -0.1 0.4-0.1 0.9-0.2 1.3 0 0.1-0.2 0.3-0.3 0.3 -0.2 0-0.5-0.1-0.5-0.3 -0.2-0.5-0.3-0.9-0.3-1.4 -0.1-0.8-0.2-1.2-1.3-1.3 -1-0.1-1.9-0.1-2.9-0.1 -0.7 0-1.2 0.4-1.5 1 -0.6 1.1-1.3 2.2-1.7 3.3 -0.4 0.9-0.6 2-0.7 3 -0.2 1.3-0.2 2.6-0.2 3.9C512.8 57.7 512.8 57.7 512.8 57.7z"/><path d="M13.9 49.7c-1.1-1-0.4-2.6-1.2-3.8 -0.3 0-0.7-0.2-1-0.1 -1 0.1-2 0.3-3 0.5 -1 0.2-1.7 0.9-2.2 1.8 -0.9 1.7-1.3 3.4-1.3 5.3 -0.1 3.6 0 7.1-0.4 10.7 -0.1 1.2-0.1 2.5 0.2 3.7 0.3 1.2 1 2 2.2 2.4 1 0.3 2 0.5 3 0.7 1.1 0.2 1.9-0.3 2.4-1.3 0.3-0.6 0.6-1.3 0.6-2 0.1-1.7 0.1-3.5 0.2-5.2 0-0.1-0.1-0.2-0.2-0.4 -0.2 0-0.4-0.1-0.6 0 -0.2 0.1-0.5 0.3-0.5 0.5 -0.1 0.5-0.2 0.9-0.3 1.4 -0.1 0.6-0.2 1.2-0.8 1.5 -0.7-0.3-1.1-0.8-1.1-1.6 0-1.1 0.1-2.2 0.6-3.2 1.1-0.4 2.3-0.4 3.5-0.3 0.3 0 0.5 0.2 0.7 0.3 0.5 0.3 0.7 0.7 0.6 1.2 -0.3 1.3 0 2.6 0 3.9 0 1.2 0.1 2.5-0.4 3.7 -0.7 1.8-2 2.9-4 3 -1.5 0.1-2.9-0.1-4.3-0.8 -2.5-1.2-4.1-3.1-4.9-5.7 -0.5-1.6-0.7-3.3-0.7-5 0-1 0-2.1 0-3.1 0-2.5 0.4-4.9 1.2-7.2 0.1-0.2 0.1-0.4 0.2-0.6 0.3-1.3 1-2.4 1.7-3.5C5.2 45 6.8 44.4 8.7 44.2c0.8-0.1 1.5-0.2 2.3-0.2 0.5 0 1.1 0 1.6 0.1 1.7 0.4 2.1 0.9 2.2 2.5 0 0.9-0.2 1.7-0.4 2.6C14.3 49.4 14.1 49.5 13.9 49.7z"/><path d="M1028.7 62.2c-0.3 0-0.5-0.1-0.7-0.1 -0.2 0.1-0.5 0.3-0.6 0.5 -0.2 0.5-0.2 0.9-0.3 1.4 -0.1 0.6-0.2 1.2-0.8 1.6 -0.7-0.3-1.1-0.8-1.1-1.6 0-1.1 0.1-2.2 0.5-3.2 1.1-0.4 2.3-0.4 3.5-0.3 0.3 0 0.5 0.2 0.7 0.3 0.5 0.3 0.8 0.7 0.6 1.2 -0.3 1.3-0.1 2.6 0 3.9 0 1.3 0.1 2.6-0.4 3.8 -0.7 1.8-2 2.7-4 2.8 -1.8 0.1-3.4-0.2-5-1.1 -2-1.2-3.4-2.9-4.1-5.1 -0.6-1.7-0.8-3.5-0.8-5.3 0-1.1 0-2.2 0-3.2 0-2.4 0.4-4.7 1.2-7 0.1-0.3 0.2-0.5 0.2-0.8 0.4-1.2 0.9-2.3 1.6-3.3 1.1-1.7 2.7-2.4 4.6-2.6 0.8-0.1 1.5-0.2 2.3-0.2 0.6 0 1.2 0 1.8 0.1 1.5 0.3 1.9 0.8 2 2.3 0.1 0.9-0.1 1.8-0.4 2.7 -0.1 0.2-0.2 0.3-0.4 0.6 -0.2-0.3-0.5-0.6-0.5-0.8 -0.1-0.5-0.1-1-0.2-1.4 -0.1-0.5-0.1-1.1-0.6-1.6 -1.4-0.2-2.8 0.1-4.2 0.5 -0.8 0.3-1.4 0.8-1.8 1.6 -0.8 1.6-1.4 3.3-1.4 5.1 -0.1 3.7 0 7.5-0.4 11.2 -0.1 1.2-0.1 2.4 0.2 3.6 0.3 1.2 1 2.1 2.2 2.4 1 0.3 2 0.5 3 0.7 1.1 0.2 1.9-0.3 2.4-1.2 0.3-0.5 0.5-1 0.6-1.5C1028.8 66.2 1028.8 64.2 1028.7 62.2z"/><path d="M217.3 45.8c-1.9-0.5-4.7-0.2-6.6 0.5 -0.1 0.3-0.2 0.7-0.2 1 0 0.8 0 1.6 0.1 2.4 0.1 1.4 0.2 2.7 0 4 -0.1 0.3 0.1 0.6 0.1 0.9 0.6 0.4 1.2 0.3 1.7 0.2 0.6-0.6 0.1-1.4 0.5-2 0.5-0.2 0.9 0.1 1.1 0.5 0.2 0.5 0.4 1 0.4 1.5 0.1 0.8 0 1.5 0 2.3 -0.1 0.9-0.2 1-1.5 1.1 -0.1-0.3-0.2-0.6-0.3-0.8 -0.2-0.5-1-0.9-1.5-0.8 -0.2 0-0.4 0.2-0.5 0.3 -0.4 0.5-0.6 1.2-0.5 1.8 0.2 1.1 0 2.2-0.2 3.4 -0.4 2.1-0.3 4.2-0.1 6.3 0.1 0.9 0.3 1.7 1.2 2.2 0.3 0.1 0.4 0.5 0.6 0.8 -0.4 0.4-0.8 0.7-1.3 0.6 -0.6-0.2-1.2 0-1.7 0.2 -1.3 0.5-2.6-0.1-3.8-0.5 -0.4-0.1-0.4-0.8-0.1-1.1 0.1-0.1 0.3-0.2 0.4-0.3 0.9-0.3 1.2-0.9 1.3-1.7 0.2-1.5 0.3-3 0.4-4.5 0.1-1.6-0.1-3.2 0.2-4.9 -0.3-1.2 0-2.3 0.3-3.5 0.1-0.4 0-0.9 0-1.3 -0.1-1-0.2-1.9-0.4-2.9 -0.2-1.2-0.2-2.4 0-3.6 0.1-0.5 0.1-1.1 0.1-1.6 0-0.3-0.2-0.6-0.4-0.9 -0.7 0.1-1.4 0.2-2 0.2 -0.6 0-0.9-0.2-1.1-0.8 -0.2-0.5 0.1-1 0.6-1.1 0.4 0 0.8 0 1.1 0 3.9 0 7.8 0 11.7 0 0.1 0 0.1 0 0.2 0 1.4 0 2 0 2.1 2.1 0 0.9 0 1.7-0.1 2.6 0 0.2 0 0.5-0.2 0.6 -0.1 0.2-0.3 0.3-0.5 0.3 -0.2 0-0.5-0.1-0.5-0.3 -0.2-0.4-0.3-0.9-0.4-1.4C217.4 47.2 217.4 46.5 217.3 45.8z"/><path d="M109.8 71.5c-0.5 0.4-0.8 0.7-1.3 0.5 -0.6-0.2-1.2 0-1.7 0.2 -1.3 0.5-2.6-0.1-3.8-0.5 -0.4-0.1-0.4-0.8-0.1-1.1 0.1-0.1 0.2-0.1 0.3-0.2 1.1-0.3 1.4-1.2 1.5-2.3 0.2-1.8 0.4-3.7 0.4-5.5 0-1 0.1-2 0.2-3.1 0-0.4 0.1-0.8 0-1.1 -0.1-0.6 0-1.2 0.2-1.7 0.3-0.8 0.3-1.6 0.2-2.4 -0.1-0.7-0.2-1.4-0.3-2.1 -0.2-1.4-0.3-2.8-0.1-4.2 0.1-0.5 0.1-1.1 0-1.6 0-0.2-0.2-0.5-0.3-0.8 -0.7 0.1-1.3 0.1-1.9 0.2 -0.5 0-0.9-0.2-1.2-0.6 -0.3-0.5 0-1.1 0.6-1.2 0.4 0 0.8 0 1.1 0 3.9 0 7.8 0 11.7 0 0.1 0 0.2 0 0.3 0 1.2-0.1 1.8 0.1 1.9 1.8 0.1 1.1 0 2.2-0.1 3.2 0 0.4-0.3 0.6-0.6 0.6 -0.3 0-0.5-0.2-0.6-0.4 -0.1-0.4-0.2-0.8-0.3-1.3 -0.1-0.6-0.1-1.3-0.2-1.8 -0.4-0.5-1-0.4-1.4-0.4 -1.9 0-3.8 0.2-5.2 0.8 -0.1 0.3-0.2 0.7-0.2 1 0 0.7 0 1.4 0 2.1 0.1 1.5 0.2 2.9 0 4.4 -0.1 0.3 0.1 0.7 0.2 1.1 0.6 0 1.1 0 1.6 0 0.6-0.6 0.1-1.4 0.5-2 0.6-0.2 0.9 0.1 1.2 0.6 0.2 0.4 0.4 0.8 0.4 1.2 0 0.9 0 1.8-0.1 2.8 0 0.4-0.3 0.7-0.7 0.8 -0.4 0.2-0.8 0-0.9-0.4 -0.1-0.2-0.1-0.4-0.2-0.6 -0.3-0.5-0.8-0.7-1.4-0.6 -0.5 0-0.8 0.4-0.9 0.8 -0.1 0.6-0.2 1.2-0.2 1.8 0 0.9 0.1 1.7-0.2 2.6 -0.1 0.3-0.1 0.6-0.1 1 0 1.7-0.1 3.5 0 5.2 0 1.1 0.2 2.1 1.3 2.8C109.5 70.9 109.6 71.2 109.8 71.5z"/><path d="M26.9 62.1c-0.1 0.5-0.3 1.1-0.5 1.6 -0.3 1.1-0.6 2.2-1 3.3 -0.3 0.8-0.8 0.9-1.9 0.6 0.3-1.8 1.5-3.5 1.4-5.5 -0.7-0.3-1.5-0.1-2.2 0 -0.4 0.8-0.6 1.8-0.8 2.6 -0.2 0.7-0.4 1.4-0.6 2 -0.1 0.4-0.3 0.7-0.5 1 -0.4 0.5-0.9 0.6-1.5 0.2 0.1-0.4 0.1-0.7 0.2-1.1 0.2-0.7 0.5-1.4 0.8-2.1 0.3-0.8 0.5-1.5 0.3-2.4 -0.5-0.4-1.1-0.2-1.6-0.3 -0.8-0.1-1.2-0.6-1.3-1.4 1.1-0.6 2.3 0 3.3-0.4 0.6-1.2 0.7-1.5 0.6-2.8 -0.6 0-1.3-0.1-1.9-0.2 -0.7-0.1-0.9-0.4-1.1-1.5 1.2-0.2 2.4-0.3 3.6-0.5 0.5-1.1 0.8-2.2 1.1-3.3 0.2-0.7 0.6-1.3 1.2-1.6 0.2-0.1 0.5-0.1 0.8-0.1 0.3 0.1 0.4 0.4 0.3 0.7 -0.1 0.5-0.2 1.1-0.4 1.6 -0.3 0.8-0.6 1.5-0.8 2.2 0.2 0.5 0.6 0.5 0.9 0.5 0.4 0 0.7-0.1 1.1-0.2 0.6-1 0.8-2.1 1.1-3.2 0.2-0.7 0.5-1.2 1.1-1.6 0.2-0.1 0.4-0.2 0.6-0.2 0.6-0.1 1.1 0.4 0.9 1 -0.1 0.4-0.3 0.8-0.5 1.2 -0.3 0.9-0.7 1.7-1.1 2.7 0.4 0.1 0.7 0.2 0.9 0.3 0.3 0.2 0.7 0.3 1 0.6 0.3 0.3 0.4 0.7 0.3 1 -0.1 0.3-0.4 0.5-0.8 0.5 -0.6 0-1.2 0-1.8 0 -0.6 0.7-0.6 1.5-0.7 2.4 0.4 0.1 0.8 0.1 1.2 0.2 0.6 0.1 1.1 0.4 1.5 0.9 0.3 0.5 0.1 1.2-0.5 1.3 -0.4 0.1-0.8 0-1.1 0 -0.4 0-0.8-0.1-1.1-0.1C27.3 61.9 27.1 62 26.9 62.1zM23.2 59.9c0.8 0 1.3 0 1.8 0 0.2 0 0.5-0.3 0.6-0.5 0.2-0.7 0.5-1.4 0.4-2.2 -0.8-0.2-1.4-0.1-2.2 0.2C23.6 58.2 23.4 58.9 23.2 59.9z"/><path d="M336.2 54.9c0.4 0.1 0.8 0.2 1.2 0.4 0.3 0.1 0.5 0.4 0.7 0.6 0.4 0.6 0.1 1.2-0.6 1.3 -0.6 0-1.2 0-1.8 0 -0.6 0.8-0.6 0.8-0.8 2.4 0.3 0.1 0.7 0.2 1 0.2 0.6 0.1 1.1 0.3 1.5 0.8 0.4 0.5 0.2 1.3-0.5 1.4 -0.4 0-0.8 0-1.1-0.1 -0.5-0.1-1.1-0.2-1.7 0.2 -0.1 0.5-0.3 1-0.4 1.6 -0.3 1-0.6 2.1-1 3.1 -0.3 0.9-0.6 1-1.8 0.8 -0.3-0.4 0-0.8 0.1-1.2 0.4-1.2 0.8-2.4 1.1-3.6 0.1-0.2 0-0.5 0.1-0.9 -0.8-0.2-1.5 0-2.3 0 -0.1 0.4-0.3 0.8-0.4 1.2 -0.4 1.2-0.7 2.5-1.1 3.7 -0.2 0.6-0.6 1-1.3 1.1 -0.4 0.1-0.8-0.2-0.7-0.6 0.2-0.7 0.5-1.3 0.7-2 0.4-1 0.8-2 0.7-3.2 -0.5-0.5-1.1-0.2-1.7-0.3 -0.8-0.2-1-0.5-1.1-1.5 1.1-0.4 2.3 0.1 3.4-0.4 0.3-0.9 0.6-1.8 0.6-2.8 -0.7-0.1-1.3-0.1-1.9-0.2 -0.8-0.1-1-0.5-1-1.5 1.2-0.1 2.3-0.3 3.5-0.4 0.6-1 0.9-2.1 1.1-3.1 0.2-0.8 0.6-1.4 1.3-1.8 0.2-0.1 0.6-0.2 0.8-0.1 0.2 0.1 0.4 0.4 0.4 0.6 0 0.5-0.1 1-0.3 1.4 -0.3 0.8-0.6 1.6-1 2.5 0.3 0.1 0.5 0.3 0.7 0.3 0.5 0 0.9-0.1 1.4-0.2 0.6-1 0.7-2 1-3 0.2-0.6 0.4-1.2 1-1.6 0.2-0.2 0.5-0.3 0.7-0.4 0.6-0.2 1.2 0.4 1 1.1 -0.2 0.6-0.5 1.2-0.8 1.8 -0.2 0.6-0.4 1.1-0.6 1.7C336.2 54.6 336.2 54.7 336.2 54.9zM330.6 59.8c2.1 0.3 2.2 0.2 2.6-1.5 0.1-0.3 0.1-0.6 0.2-0.9 -1-0.3-1-0.3-2.3 0.1C330.9 58.1 330.6 58.9 330.6 59.8z"/><path d="M938.2 57.4c-0.8-0.1-1.5-0.1-2.1-0.2 -0.7-0.1-0.9-0.5-0.8-1.5 1.1-0.2 2.4 0 3.5-0.5 0.6-0.9 0.7-1.9 1-2.9 0.2-0.7 0.5-1.3 1.1-1.7 0.2-0.1 0.4-0.2 0.6-0.3 0.4-0.1 0.8 0.2 0.8 0.6 0 0.6-0.1 1.1-0.3 1.6 -0.4 0.8-0.6 1.6-0.9 2.3 0.2 0.5 0.6 0.5 0.9 0.5 0.4 0 0.8-0.1 1.3-0.2 0.4-1.1 0.7-2.2 1-3.3 0.2-0.6 0.5-1.1 1-1.4 0.2-0.1 0.4-0.2 0.6-0.2 0.6-0.1 1.1 0.4 0.9 1 -0.1 0.4-0.3 0.7-0.4 1.1 -0.4 0.9-0.7 1.8-1.1 2.8 0.4 0.1 0.7 0.2 0.9 0.3 0.3 0.2 0.7 0.4 1 0.6 0.3 0.2 0.4 0.7 0.3 1 -0.2 0.3-0.5 0.5-0.8 0.5 -0.6 0-1.2 0-1.8-0.1 -0.6 0.8-0.7 1.6-0.8 2.5 0.4 0.1 0.8 0.1 1.2 0.2 0.6 0.1 1.1 0.4 1.5 0.9 0.3 0.5 0.1 1.2-0.5 1.3 -0.4 0-0.8 0-1.1 0 -0.4 0-0.8-0.1-1.1-0.1 -0.1 0-0.3 0.1-0.6 0.2 -0.2 0.8-0.5 1.7-0.7 2.6 -0.2 0.8-0.4 1.6-0.8 2.3 -0.4 0.9-0.7 1-1.9 0.6 0.3-1.9 1.6-3.5 1.4-5.6 -0.8 0-1.4 0.1-2.2 0.1 -0.2 0.5-0.3 0.9-0.4 1.3 -0.4 1.2-0.7 2.5-1.1 3.7 -0.2 0.5-0.5 1-1.1 1.1 -0.2 0-0.5 0-0.7-0.2 -0.1-0.1-0.1-0.4-0.1-0.6 0.3-0.9 0.7-1.8 1-2.7 0.3-0.8 0.5-1.5 0.3-2.4 -0.6-0.1-1.1-0.1-1.6-0.2 -0.8-0.1-1-0.4-1.1-1.5 1-0.4 2.1 0 3.3-0.3C937.9 59.4 938.2 58.5 938.2 57.4zM940.3 57.4c-0.2 0.6-0.4 1.2-0.5 1.8 -0.1 0.2 0.1 0.5 0.1 0.8 0.6 0 1.1 0 1.5-0.1 0.3 0 0.6-0.2 0.7-0.6 0.2-0.7 0.5-1.3 0.4-2.1C941.7 57 941.1 57.1 940.3 57.4z"/><path d="M836.3 58c1.3 0.2 1.4 0.2 1.7-0.6 0.2-0.5 0.3-1 0.5-1.5 0.1-0.3 0.2-0.6 0.4-0.9 0.2-0.3 0.6-0.5 1-0.4 0.3 0.1 0.4 0.5 0.2 1 -0.3 0.7-0.6 1.4-0.9 2.2 0.5 0.3 0.9 0.6 1.3 0.9 0.1 0.1 0.1 0.4 0.1 0.6 0 0.1-0.2 0.2-0.4 0.3 -0.5 0.1-0.9 0.1-1.4 0.1 -0.5 0.5-0.5 1-0.5 1.7 0.3 0.1 0.6 0.1 0.9 0.2 0.2 0.1 0.5 0.2 0.7 0.4 0.1 0.2 0.2 0.5 0.1 0.7 0 0.1-0.3 0.3-0.5 0.3 -0.5 0-1-0.1-1.4-0.1 -0.5 0.3-0.6 0.8-0.7 1.3 -0.2 0.8-0.5 1.6-0.7 2.3 -0.1 0.2-0.3 0.4-0.5 0.5 -0.1 0.1-0.4 0-0.6 0 0-1.4 1-2.5 0.8-3.8 -0.8-0.2-0.8-0.3-1.7 0 -0.1 0.6-0.3 1.2-0.5 1.8 -0.2 0.6-0.4 1.2-0.7 1.8 -0.2 0.5-0.6 0.5-1.1 0.3 0.1-1.4 1.1-2.5 0.9-4 -0.4-0.1-0.9-0.1-1.3-0.2 -0.4-0.1-0.8-0.4-0.6-1 0.7-0.1 1.5-0.2 2.3-0.3 0.1-0.6 0.3-1.1 0.4-1.7 -0.7-0.5-1.9 0-2.2-1.3 0.8-0.5 1.7-0.1 2.6-0.6 0.2-0.6 0.4-1.3 0.7-2 0.2-0.5 0.3-0.9 0.8-1.2 0.2-0.1 0.5-0.2 0.6-0.1 0.2 0.2 0.3 0.4 0.3 0.7 0 0.3-0.2 0.6-0.3 0.9C836.7 56.9 836.5 57.4 836.3 58zM835.4 61.3c1.2 0.4 1.6 0.3 1.8-0.7 0.2-0.8-0.2-1.1-0.9-0.9 -0.3 0.1-0.6 0.3-0.7 0.6C835.5 60.6 835.5 60.9 835.4 61.3z"/><path d="M126.6 59.4c-0.5 1-0.6 2.1-0.9 3.2 -0.3 1.1-0.3 2.2-0.7 3.3 -0.5 0.1-0.6-0.3-0.7-0.6 -0.4-1.2-0.7-2.4-1.1-3.6 -0.1-0.3-0.3-0.5-0.5-0.9 -0.6 1.7-0.7 5.6-0.2 7.2 -0.7 0.4-1.4 0.3-2.2 0.1 0.2-0.4 0.5-0.8 0.5-1.2 0.1-0.6 0-1.2 0-1.8 0-1.9 0-3.9 0-5.8 0-0.5 0-1.1 0-1.6 -0.4-0.3-0.8-0.5-1.1-0.7 0.1-0.2 0.1-0.3 0.2-0.3 0.6 0 1.2-0.1 1.8 0 0.3 0 0.6 0.3 0.7 0.6 0.3 0.4 0.5 0.9 0.6 1.3 0.4 1 0.7 1.9 1 2.9 0.1 0.3 0.3 0.7 0.5 1.2 0.2-0.3 0.4-0.4 0.4-0.6 0.3-1.4 0.6-2.7 1-4.1 0.3-1.2 0.5-1.4 1.8-1.4 0.3 0 0.5 0.1 0.8 0.1 -0.1 0.2-0.1 0.4-0.1 0.5 -0.5 0.2-0.6 0.7-0.6 1.2 0.1 2.6 0.1 5.2 0.1 7.8 0 0.7 0 1.4 0.8 1.9 -0.8 0.5-1.4 0.3-2.1 0.2 0.1-0.5 0.2-0.9 0.3-1.4 0-0.5 0-1-0.1-1.5 0-0.5 0-1.1 0-1.6 0-0.5 0.1-1 0.1-1.5 0-0.5 0.1-1 0.1-1.5 0-0.5 0-1 0-1.4C126.8 59.4 126.7 59.4 126.6 59.4z"/><path d="M726.2 68c0.6-1 0.6-1 0.7-1.8 0.1-2.3 0.1-4.6 0.2-7 0-0.1 0-0.2 0-0.3 0-1.2 0-1.2-0.8-2.2 1.1-0.2 2.1-0.2 3 0 0.9 0.3 1.5 1.4 1.2 2.5 -0.1 0.5-0.3 0.9-0.5 1.5 0.2 0.2 0.4 0.4 0.6 0.6 0.1 0.1 0.2 0.2 0.3 0.4 0.9 1.4 0.8 4.4-0.3 5.7 -0.4 0.5-1 0.8-1.6 0.9C728 68.5 727.1 68.3 726.2 68zM728.1 64.4c0 0 0 0 0 0 0 0.8 0 1.6 0 2.4 0 0.6 0.5 0.9 1 0.6 0.5-0.3 0.8-0.7 1-1.2 0.5-1.3 0.3-2.7 0.1-4 -0.1-0.6-0.5-0.9-1.1-1.1 -0.6-0.2-1 0.1-1 0.7C728.1 62.6 728.1 63.5 728.1 64.4zM728.6 60.1c0.8-0.8 1-1.5 0.8-2.3 0-0.2-0.3-0.4-0.6-0.5 -0.3-0.1-0.5 0.1-0.6 0.4C728 58.5 728 59.2 728.6 60.1z"/><path d="M624.7 56.8c1-0.2 2.2-0.3 2.8-0.1 1 0.3 1.6 1.4 1.3 2.6 -0.1 0.5-0.3 0.9-0.5 1.4 1.6 1.2 1.6 2.9 1.4 4.7 -0.1 0.5-0.2 0.9-0.4 1.4 -0.5 1-1.3 1.6-2.4 1.6 -0.8 0-1.6-0.2-2.5-0.3 0.3-0.5 0.6-0.8 0.7-1.2 0.1-0.4 0.1-0.9 0.1-1.3 0.1-2.2 0.1-4.4 0.2-6.7C625.4 57.8 625.4 57.8 624.7 56.8zM626.7 67.3c1 0.1 1.5-0.1 1.8-1.1 0.5-1.4 0.4-2.7 0.1-4.1 -0.1-0.5-0.5-0.8-1-1 -0.7-0.2-1.1 0-1.1 0.7 0 1.7 0 3.5 0 5.2C626.5 67.1 626.6 67.2 626.7 67.3zM626.9 59.9c0.7-0.6 0.8-0.7 0.8-1.1 0.1-0.4 0.1-0.7 0-1.1 0-0.2-0.3-0.3-0.5-0.4 -0.2 0-0.5 0.1-0.5 0.2C626.4 58.4 626.3 59.2 626.9 59.9z"/><path d="M1036.3 68.2c-1.2 0.4-1.5 0.4-3.1 0 1-1 1.2-2.4 1.7-3.6 0.7-2.1 1.4-4.2 2-6.3 0.2-0.5 0.3-1 0.2-1.6 -0.9-0.3-1.9-0.3-2.8 0 -0.1 0.5-0.1 0.9-0.2 1.6 -0.7-0.6-0.7-1.2-0.7-1.8 0-0.1 0.2-0.3 0.3-0.4 0.1-0.1 0.2-0.1 0.3-0.1 0.8-0.2 4.2-0.1 5.1 0.1 0.3 0.4 0 0.8-0.1 1.2 -0.9 2.7-1.8 5.3-2.7 8 -0.1 0.3-0.2 0.6-0.3 0.9C1035.6 67.2 1035.6 67.2 1036.3 68.2z"/><path d="M427.6 56.7c-1.1-0.3-2-0.2-2.9 0 -0.1 0.5-0.2 1-0.3 1.5 -0.1 0-0.3 0-0.3 0 -0.9-2.1-0.1-2.1 1.3-2.2 1.1 0 2.2 0 3.3 0 0.3 0 0.5 0.1 0.9 0.2 0 0.4 0 0.7-0.1 1 -0.6 1.8-1.2 3.7-1.9 5.5 -0.4 1.2-0.8 2.3-1.2 3.5 -0.3 1-0.3 1 0.4 2.1 -0.2 0.1-0.5 0.2-0.7 0.3 -0.2 0-0.4 0-0.6 0 -0.5 0-1.1-0.1-1.7-0.1 0.1-0.2 0.2-0.4 0.3-0.6 0.2-0.4 0.5-0.7 0.7-1.1 1-3 2.1-5.9 2.9-9C427.5 57.5 427.6 57.2 427.6 56.7z"/><path d="M634.4 57.4c-1.1-0.5-1.9-0.4-2.8-0.1 -0.1 0.5-0.2 0.9-0.3 1.3 -0.1 0-0.2 0-0.3-0.1 0 0-0.1-0.1-0.1-0.1 -0.5-1.5-0.3-1.7 1.2-1.8 1.3 0 2.6 0 4 0 0 0.4 0 0.7-0.1 1 -0.9 2.6-1.8 5.1-2.6 7.7 -0.5 1.5-0.5 1.5-0.1 2.9 -0.8 0.3-1.7 0.1-2.6 0C632.4 64.7 633.4 61.2 634.4 57.4z"/><path d="M846.4 57.4c-0.9-0.5-1.7-0.4-2.6-0.1 -0.1 0.5-0.2 0.9-0.3 1.4 -0.2-0.1-0.3-0.1-0.3-0.2 -0.8-1.9-0.1-2 1.3-1.9 1.2 0 2.5 0 3.8 0.1 0 0.4 0 0.7-0.1 1 -0.9 2.6-1.7 5.1-2.6 7.7 -0.1 0.2-0.1 0.3-0.2 0.5 -0.4 1.1-0.4 1.1 0.2 2.4 -0.9 0.5-1.8 0.1-2.7 0.1 0.4-0.8 0.7-1.4 1-2.1 0.3-0.7 0.5-1.4 0.8-2.1s0.5-1.4 0.7-2.2c0.2-0.7 0.5-1.4 0.6-2.2C846.1 58.9 846.4 58.2 846.4 57.4z"/><path d="M87.8 49.3c0.8 0 1.4 0 2 0 0.4 0.6 0.2 1.2 0.3 1.8 0.1 0.8-0.1 1.7 0.4 2.5 0.2 0.3 0 0.8-0.1 1.2 -0.1 0.4-0.3 0.8-0.5 1.3 -0.4 0-0.8 0-1.3 0.1 -0.2-0.5-0.3-0.8-0.4-1.2 -0.5-0.1-1.1-0.1-1.7-0.2 -0.5-0.6-0.3-1.3-0.1-2 0.2-0.6 0.4-1.1 0.6-1.7C87.2 50.6 87.5 50 87.8 49.3zM88.1 51.4c-0.5 0.4-0.6 0.9-0.6 1.5 0 0.1 0.2 0.4 0.2 0.3 0.2 0 0.5-0.1 0.5-0.2C88.4 52.5 88.4 52 88.1 51.4z"/><path d="M155.3 15.2c-3.3-0.2-5.2-2.6-5.1-5.2 0.1-3.2 2.4-5.1 5.2-5.1 3.3 0.1 5.1 2.5 5.1 5.2C160.5 12.9 158.1 15.3 155.3 15.2zM155.4 14.7c2.5 0 4.5-2.1 4.5-4.6 0-2.6-2.1-4.6-4.7-4.6 -2.5 0-4.6 2.1-4.6 4.6C150.7 12.6 152.9 14.7 155.4 14.7z"/><path d="M558.7 6.1c-0.1-2.7 2.4-5.2 5.1-5.3 2.7-0.1 5.2 2.4 5.3 5.1 0.1 2.7-2.4 5.2-5.1 5.3C561.3 11.3 558.8 8.8 558.7 6.1zM564 10.6c2.5 0 4.7-2.3 4.6-4.7 -0.1-2.5-2.3-4.6-4.8-4.6 -2.4 0.1-4.5 2.2-4.5 4.6C559.3 8.4 561.5 10.7 564 10.6z"/><path d="M467.5 6.1c-0.1 2.8-2.5 5.2-5.3 5.1 -2.8-0.1-5.2-2.5-5.1-5.3 0.1-2.8 2.5-5.2 5.3-5.1C465.1 0.8 467.5 3.3 467.5 6.1zM466.9 5.9c0-2.5-2.1-4.6-4.6-4.6 -2.5 0-4.7 2.2-4.6 4.7 0 2.5 2.1 4.6 4.6 4.6C464.8 10.6 466.9 8.5 466.9 5.9z"/><path d="M251.8 6c0.1-2.8 1.9-5 5.1-5.2 2.7-0.1 5.3 2.4 5.2 5.2 -0.1 2.8-1.9 5.1-5.1 5.2C253.9 11.2 252 8.9 251.8 6zM261.6 5.9c0-2.5-2.3-4.7-4.7-4.6 -2.5 0.1-4.6 2.2-4.5 4.8 0.1 2.4 2.2 4.5 4.6 4.5C259.5 10.6 261.6 8.4 261.6 5.9z"/><path d="M554.9 5.9c0 2.7-2.4 5.3-5.1 5.2 -2.9-0.1-5.1-2-5.2-5.1 0-2.7 1.7-5 5.1-5.2C552.3 0.6 554.9 3.2 554.9 5.9zM554.3 6c0-2.5-2.2-4.7-4.7-4.6 -2.5 0-4.6 2.2-4.6 4.7 0 2.4 2.1 4.5 4.6 4.6C552.1 10.7 554.3 8.5 554.3 6z"/><path d="M481.7 5.9c0 2.7-2.4 5.3-5.1 5.2 -2.8-0.1-5.1-2-5.2-5.1 -0.1-2.6 1.7-5 5.1-5.3C479.2 0.6 481.7 3.2 481.7 5.9zM481.1 5.9c0-2.5-2.3-4.6-4.7-4.6 -2.5 0.1-4.6 2.3-4.5 4.8 0.1 2.4 2.2 4.5 4.6 4.5C479.1 10.6 481.2 8.4 481.1 5.9z"/><path d="M277.6 6c0.1-3 2.2-5.2 5.2-5.2 3.1 0 5.1 2.3 5.2 5.2 0 2.7-1.9 5.1-5.1 5.2C279.7 11.2 277.7 8.9 277.6 6zM287.3 5.9c0-2.5-2.1-4.6-4.6-4.6 -2.5 0-4.7 2.2-4.6 4.7 0 2.5 2.1 4.6 4.6 4.6C285.2 10.6 287.4 8.5 287.3 5.9z"/><path d="M1063.1 5.9c-0.1 2.7-1.8 5-5.1 5.2 -2.7 0.2-5.2-2.4-5.3-5.1 0-2.7 2.4-5.3 5.1-5.3C1060.4 0.8 1062.8 2.5 1063.1 5.9zM1062.5 6c0-2.5-2.1-4.7-4.6-4.7 -2.5 0-4.6 2.2-4.6 4.7 0 2.4 2.2 4.5 4.6 4.6C1060.3 10.7 1062.5 8.5 1062.5 6z"/><path d="M453.2 6c-0.2 3.4-2.6 5.1-5.2 5.1 -2.7 0.1-5.2-2.5-5.2-5.2 0-2.7 2.6-5.3 5.3-5.1C451.4 1 453.1 3.3 453.2 6zM452.7 6c0-2.5-2.1-4.7-4.6-4.7 -2.5 0-4.7 2.2-4.6 4.7 0 2.4 2.1 4.5 4.5 4.6C450.4 10.7 452.6 8.6 452.7 6z"/><path d="M583.3 6c-0.2 3.2-2.3 5.2-5.2 5.1 -3.2 0-5.2-2.3-5.1-5.2 0-3.1 2.2-5.2 5.2-5.1C581.3 0.8 583.2 3.1 583.3 6zM582.8 6c0-2.5-2.2-4.7-4.7-4.6 -2.5 0.1-4.6 2.3-4.6 4.7 0.1 2.4 2.2 4.5 4.6 4.5C580.6 10.6 582.8 8.5 582.8 6z"/><path d="M950 29.7c0-0.5-0.1-1-0.1-1.5 0-0.9 0-1.8 0-2.8 0-0.6-0.2-1.1-0.8-1.2 -0.1 0-0.1-0.1-0.2-0.2 1.5-1.1 1.7-1.3 2.6-1.2 0.2 1.3 0.2 5.4 0 6.8 -0.2 0-0.4 0.1-0.6 0.1C950.7 29.8 950.4 29.8 950 29.7z"/><path d="M155.4 14.7c-2.5 0-4.7-2.1-4.7-4.6 0-2.4 2.1-4.6 4.6-4.6 2.6 0 4.7 2 4.7 4.6C159.9 12.6 157.9 14.6 155.4 14.7z" class="a"/><path d="M564 10.6c-2.5 0-4.7-2.2-4.7-4.6 0-2.4 2.1-4.6 4.5-4.6 2.4-0.1 4.7 2.1 4.8 4.6C568.6 8.4 566.4 10.6 564 10.6z" class="a"/><path d="M466.9 5.9c0 2.5-2.1 4.7-4.6 4.7 -2.4 0-4.6-2.1-4.6-4.6 0-2.5 2.1-4.7 4.6-4.7C464.8 1.4 466.9 3.5 466.9 5.9z" class="a"/><path d="M261.6 5.9c0 2.5-2.1 4.7-4.6 4.7 -2.4 0-4.5-2.1-4.6-4.5 -0.1-2.5 2-4.7 4.5-4.8C259.4 1.3 261.6 3.4 261.6 5.9z" class="a"/><path d="M554.3 6c0 2.5-2.2 4.7-4.7 4.6 -2.4 0-4.5-2.1-4.6-4.6 0-2.5 2.1-4.7 4.6-4.7C552.1 1.3 554.3 3.5 554.3 6z" class="a"/><path d="M481.1 5.9c0 2.5-2.1 4.7-4.6 4.7 -2.4 0-4.6-2-4.6-4.5 -0.1-2.5 2-4.7 4.5-4.8C478.9 1.3 481.1 3.4 481.1 5.9z" class="a"/><path d="M287.3 5.9c0 2.5-2.1 4.7-4.6 4.7 -2.4 0-4.6-2.1-4.6-4.6 0-2.5 2.2-4.7 4.6-4.7C285.2 1.4 287.3 3.5 287.3 5.9z" class="a"/><path d="M1062.5 6c0 2.5-2.2 4.7-4.7 4.6 -2.4 0-4.5-2.2-4.6-4.6 0-2.5 2.1-4.7 4.6-4.7C1060.3 1.3 1062.5 3.5 1062.5 6z" class="a"/><path d="M452.7 6c0 2.5-2.2 4.7-4.7 4.6 -2.4-0.1-4.5-2.2-4.5-4.6 0-2.5 2.2-4.7 4.7-4.7C450.6 1.3 452.7 3.5 452.7 6z" class="a"/><path d="M582.8 6c0 2.5-2.1 4.7-4.6 4.7 -2.4 0-4.6-2.1-4.6-4.5 -0.1-2.5 2.1-4.7 4.6-4.7C580.6 1.3 582.7 3.4 582.8 6z" class="a"/></svg>